<?xml version="1.0" standalone="no"?>
<!DOCTYPE svg PUBLIC "-//W3C//DTD SVG 1.1//EN" "http://www.w3.org/Graphics/SVG/1.1/DTD/svg11.dtd" >
<svg xmlns="http://www.w3.org/2000/svg">
  <metadata>Created by iconfont</metadata>
  <defs>
  <font id="iconfont" horiz-adv-x="1024">
    <font-face
      font-family="iconfont"
      font-weight="400"
      font-stretch="normal"
      units-per-em="1024"
      ascent="896"
      descent="-128"
    />
      <missing-glyph />
      
      <glyph glyph-name="zhongwen1" unicode="&#59230;" d="M841.563366 895.999535A182.033563 182.033563 0 0 0 1023.969281 713.267811v-658.504438a182.033563 182.033563 0 0 0-182.405915-182.685179H182.453856C81.267211-129.83011 0.001396-48.378119 0.001396 52.948158V713.267811A182.033563 182.033563 0 0 0 182.407312 895.999535H841.516822z m-288.898576-186.175979h-81.777799a19.548478 19.548478 0 0 1-7.540127-1.210144c-8.191743-3.444256-12.334159-9.401887-12.334158-17.872894v-101.465909H206.424013a25.645741 25.645741 0 0 1-8.750271-1.1636C189.993983 584.108226 186.177375 578.56949 186.177375 571.401715v-356.527c0-1.86176 0.511984-4.282048 1.582496-7.167775 4.514767-7.447039 9.681151-11.170559 15.49915-11.170559H451.012706v-143.122784c0-2.420288 0.418896-4.794031 1.210143-7.167775 3.95624-7.912479 9.681151-11.915263 17.081646-11.915262h85.780583a11.635999 11.635999 0 0 1 2.79264 0.418896c10.006959 2.885728 15.080254 9.122623 15.080254 18.617597v143.215872h246.962436a9.913871 9.913871 0 0 1 5.166383 1.1636c8.471007 3.72352 12.706511 9.401887 12.706511 17.081646V567.864372c0 4.794031-0.511984 7.959023-1.582496 9.541518-3.444256 7.912479-9.681151 11.915263-18.664142 11.915263H572.957972V690.740518a42.355035 42.355035 0 0 1-0.418896 4.375135c-3.164992 9.774239-9.774239 14.707902-19.874286 14.707903zM451.012706 499.537787v-212.845688H297.417523V499.537787H451.012706z m275.214641 0v-212.845688H572.957972V499.537787h153.269375z"  horiz-adv-x="1024" />
      
      <glyph glyph-name="yejianmoshi" unicode="&#59231;" d="M504.983833 889.23804a410.878562 410.878562 0 0 1-112.230008-282.111013c0-230.501593 191.026531-417.329739 426.699307-417.329739 71.679749 0 139.263513 17.25434 198.552905 47.820632 3.071989 1.535995 6.911976-2.201592 5.78558-5.63198C957.539049 23.34667 758.678945-128 523.671767-128 234.443979-128 0 101.375197 0 384.203007 0 659.965242 222.668021 884.732455 501.655844 895.996416c3.379188 0.153599 5.58078-4.351985 3.327989-6.758376z"  horiz-adv-x="1024" />
      
      <glyph glyph-name="liangsemoshi" unicode="&#59232;" d="M768 384a256 256 0 1 0-512 0 256 256 0 0 0 512 0z m-281.6 358.4h51.2a25.6 25.6 0 0 1 25.6 25.6V870.4a25.6 25.6 0 0 1-25.6 25.6h-51.2a25.6 25.6 0 0 1-25.6-25.6v-102.4c0-14.149818 11.450182-25.6 25.6-25.6z m51.2-716.8h-51.2a25.6 25.6 0 0 1-25.6-25.6v-102.4c0-14.149818 11.450182-25.6 25.6-25.6h51.2a25.6 25.6 0 0 1 25.6 25.6v102.4a25.6 25.6 0 0 1-25.6 25.6z m460.8 409.6h-102.4a25.6 25.6 0 0 1-25.6-25.6v-51.2c0-14.149818 11.450182-25.6 25.6-25.6h102.4a25.6 25.6 0 0 1 25.6 25.6v51.2a25.6 25.6 0 0 1-25.6 25.6zM153.6 358.4v51.2a25.6 25.6 0 0 1-25.6 25.6H25.6a25.6 25.6 0 0 1-25.6-25.6v-51.2c0-14.149818 11.450182-25.6 25.6-25.6h102.4a25.6 25.6 0 0 1 25.6 25.6z m629.76 261.12a25.6 25.6 0 0 1 36.352 0l72.192 71.68a25.6 25.6 0 0 1 0 36.352l-35.84 35.84a25.6 25.6 0 0 1-36.352 0L747.52 691.2a25.6 25.6 0 0 1 0-36.352l35.84-35.328zM240.64 148.48a25.6 25.6 0 0 1-36.352 0L132.096 76.8a25.6 25.6 0 0 1 0-36.352l35.84-35.84a25.6 25.6 0 0 1 36.352 0L276.48 76.8a25.6 25.6 0 0 1 0 36.352l-35.84 35.328z m578.56 0a25.6 25.6 0 0 1-36.352 0l-35.84-35.84a25.6 25.6 0 0 1 0-36.352l72.192-72.192a25.6 25.6 0 0 1 36.352 0l35.84 35.84a25.6 25.6 0 0 1 0 36.352L819.2 148.48zM204.8 619.52a25.6 25.6 0 0 1 36.352 0l35.84 35.84a25.6 25.6 0 0 1-0.512 35.84L204.8 763.904a25.6 25.6 0 0 1-36.352 0l-35.84-35.84a25.6 25.6 0 0 1 0-36.352L204.8 619.52z"  horiz-adv-x="1024" />
      
      <glyph glyph-name="yingyu" unicode="&#59233;" d="M511.054459 535.981735l81.312359-217.081191H429.835188l81.265815 217.081191z m36.164684 162.810894h-70.467608c-16.243854 0-28.857277-9.029535-34.302924-23.504718L240.168409 123.508854a36.11814 36.11814 0 0 1 21.689502-47.009435c3.630432-1.86176 9.029535-1.86176 12.659966-1.86176h41.517244c16.290398 0 28.857277 9.076079 34.302924 25.366477l36.11814 108.540596h247.427876l43.332459-108.540596c5.445647-14.428638 19.874286-23.504717 34.302924-23.504717h43.379003c19.874286 0 36.11814 16.290398 36.11814 36.164684 0 3.630432 0 9.029535-1.86176 12.659966L581.568611 675.287911a37.04902 37.04902 0 0 1-34.302924 23.504718zM841.516822 895.999535A182.033563 182.033563 0 0 0 1023.969281 713.267811v-658.504438a182.033563 182.033563 0 0 0-182.405915-182.685179H182.453856C81.267211-129.83011 0.001396-48.378119 0.001396 52.948158V713.267811A182.033563 182.033563 0 0 0 182.407312 895.999535H841.516822z"  horiz-adv-x="1024" />
      
      <glyph glyph-name="weizhi" unicode="&#59229;" d="M341.333333 725.333333a85.333333 85.333333 0 1 1 0 170.666667 85.333333 85.333333 0 0 1 0-170.666667z m341.333334 0a85.333333 85.333333 0 1 1 0 170.666667 85.333333 85.333333 0 0 1 0-170.666667zM341.333333 298.666667a85.333333 85.333333 0 1 1 0 170.666666 85.333333 85.333333 0 0 1 0-170.666666z m341.333334 0a85.333333 85.333333 0 1 1 0 170.666666 85.333333 85.333333 0 0 1 0-170.666666z m-341.333334-426.666667a85.333333 85.333333 0 1 1 0 170.666667 85.333333 85.333333 0 0 1 0-170.666667z m341.333334 0a85.333333 85.333333 0 1 1 0 170.666667 85.333333 85.333333 0 0 1 0-170.666667z"  horiz-adv-x="1024" />
      
      <glyph glyph-name="gaodu" unicode="&#59218;" d="M1026.304-13.952V-128H0v114.048h1026.304zM510.848 738.688l228.096-228.096H572.416v-253.184h171.072L515.392 29.44 287.36 257.408h171.072l-0.064 253.184H282.816L510.848 738.56zM1026.304 896v-114.048H0V896h1026.304z"  horiz-adv-x="1088" />
      
      <glyph glyph-name="huifumoren" unicode="&#59219;" d="M177.561337 771.219765a511.711979 511.711979 0 0 0 753.605542-680.942441L767.930757 384h153.513594a409.369583 409.369583 0 0 1-692.85802 295.330914l-51.024994 91.888851z m669.026862-774.43953A511.711979 511.711979 0 0 0 92.982657 677.722676L256.218778 384H102.705184a409.369583 409.369583 0 0 1 692.85802-295.330914l51.024995-91.888851z"  horiz-adv-x="1024" />
      
      <glyph glyph-name="lietou" unicode="&#59220;" d="M56.905143-128A56.905143 56.905143 0 0 0 0-71.094857V839.094857C0 870.546286 25.453714 896 56.905143 896h910.189714c31.451429 0 56.905143-25.453714 56.905143-56.905143v-910.189714c0-31.451429-25.453714-56.905143-56.905143-56.905143H56.905143z m227.474286 625.810286H113.883429v-512h170.642285v512z m625.810285 0h-512v-512h512v512z"  horiz-adv-x="1024" />
      
      <glyph glyph-name="jian" unicode="&#59221;" d="M257.807059 850.703059C207.992471 691.260235 131.433412 551.514353 27.888941 431.465412l32.105412-104.568471a1511.905882 1511.905882 0 0 1 92.16 106.616471v-546.575059h96.256V576.391529a1192.237176 1192.237176 0 0 1 101.436235 231.905883L257.746824 850.642824z m173.839059-74.511059c-20.660706-132.517647-62.042353-245.338353-122.096942-337.498353L372.675765 356.894118A881.423059 881.423059 0 0 1 466.823529 534.949647h156.310589v-222.569412h-293.948236v-95.171764h293.948236v-326.113883h98.364235V217.148235h267.023059V312.380235H721.618824V534.949647h228.773647V631.265882h-228.773647V838.294588h-98.364236v-207.028706H498.989176a1481.185882 1481.185882 0 0 1 28.912942 132.517647L431.706353 776.131765z"  horiz-adv-x="1024" />
      
      <glyph glyph-name="shaixuanxiang" unicode="&#59222;" d="M950.857143 457.142857a73.142857 73.142857 0 0 0 73.142857-73.142857v-438.857143a73.142857 73.142857 0 0 0-73.142857-73.142857H73.142857a73.142857 73.142857 0 0 0-73.142857 73.142857V384a73.142857 73.142857 0 0 0 73.142857 73.142857h877.714286z m-21.942857-95.085714H95.085714v-394.971429h833.828572V362.057143zM73.142857 896h438.857143a73.142857 73.142857 0 0 0 73.142857-73.142857v-146.285714a73.142857 73.142857 0 0 0-73.142857-73.142858H73.142857a73.142857 73.142857 0 0 0-73.142857 73.142858V822.857143a73.142857 73.142857 0 0 0 73.142857 73.142857z"  horiz-adv-x="1024" />
      
      <glyph glyph-name="hangtou" unicode="&#59223;" d="M56.905143-128A56.905143 56.905143 0 0 0 0-71.094857V839.094857C0 870.546286 25.453714 896 56.905143 896h910.189714c31.451429 0 56.905143-25.453714 56.905143-56.905143v-910.189714c0-31.451429-25.453714-56.905143-56.905143-56.905143H56.905143z m853.284571 625.810286h-512v-512h512v512z m0 284.379428H113.810286v-170.642285h796.379428V782.189714z"  horiz-adv-x="1024" />
      
      <glyph glyph-name="shiyi" unicode="&#59224;" d="M512 896a512 512 0 1 1 0-1024A512 512 0 0 1 512 896z m73.801143-876.763429H439.003429v146.285715h146.797714v-146.285715z m69.485714 356.717715c-57.270857-40.374857-73.874286-73.801143-69.632-112.054857v-25.453715H439.515429v35.035429c-2.194286 65.828571 23.698286 112.054857 81.042285 150.235428 53.101714 40.301714 78.555429 78.555429 76.507429 114.688-4.315429 44.617143-29.769143 68.973714-76.507429 73.289143-57.344 0-93.476571-38.253714-108.251428-114.688l-146.578286 28.672c27.574857 146.578286 119.954286 217.673143 277.211429 213.430857 131.657143-8.484571 203.849143-68.022857 216.576-178.395428 4.242286-72.192-23.405714-133.851429-104.155429-184.758857z"  horiz-adv-x="1024" />
      
      <glyph glyph-name="piao" unicode="&#59225;" d="M51.079529 872.387765v-89.148236h319.427765v-69.511529h-243.350588v-256.421647h819.2V713.728h-243.350588V783.36h319.427764V872.387765H51.079529z m554.164706-158.659765H468.329412V783.36h136.914823v-69.571765z m242.266353-172.754824h-144.50447V628.976941h144.564706v-87.943529z m-242.266353 0H468.329412V628.976941h136.914823v-87.943529z m-234.736941 0H226.002824V628.976941h144.564705v-87.943529z m-193.355294-146.672941v-84.751059h725.835294V394.300235H177.091765z m-108.664471-144.50447v-88.003765H498.748235v-126.072471c0-27.105882-14.155294-41.261176-42.405647-41.261176-27.105882 0-55.416471 2.168471-85.835294 5.421176l19.576471-91.25647h99.990588c71.68 0 108.604235 35.84 108.604235 105.411765V161.731765h406.40753v88.003764H68.427294zM769.204706 140.047059l-68.427294-65.174588c104.327529-56.500706 185.765647-108.664471 243.350588-157.57553l71.740235 71.68c-67.343059 49.995294-148.841412 101.074824-246.663529 151.070118z m-443.331765-2.168471c-70.595765-53.248-157.515294-99.990588-259.614117-140.167529l61.921882-80.414118c104.267294 45.658353 193.355294 98.906353 265.095529 159.744l-67.343059 60.837647z"  horiz-adv-x="1024" />
      
      <glyph glyph-name="zhi" unicode="&#59226;" d="M56.905143-128A56.905143 56.905143 0 0 0 0-71.094857V839.094857C0 870.546286 25.453714 896 56.905143 896h910.189714c31.451429 0 56.905143-25.453714 56.905143-56.905143v-910.189714c0-31.451429-25.453714-56.905143-56.905143-56.905143H56.905143z m227.474286 625.810286H113.883429v-512h170.642285v512z m625.810285 284.379428H113.810286v-170.642285h796.379428V782.189714z"  horiz-adv-x="1024" />
      
      <glyph glyph-name="ziduanxuanze" unicode="&#59227;" d="M967.111111 267.662222l45.511111-45.511111c11.377778-11.377778 11.377778-31.288889 0-45.511111l-278.755555-270.051556c-2.844444-2.844444-8.533333-5.688889-14.222223-8.533333l-91.022222-25.6c-11.377778-2.844444-22.755556 8.533333-19.911111 19.911111l28.444445 93.809778c2.844444 5.688889 5.688889 8.533333 8.533333 14.222222l275.911111 267.264c11.377778 11.377778 34.133333 11.377778 45.511111 0zM910.222222 896c62.577778 0 113.777778-51.2 113.777778-113.777778v-426.439111c0-17.066667-11.377778-28.444444-28.444444-28.444444h-56.888889c-17.066667 0-28.444444 11.377778-28.444445 28.444444V725.390222c0 31.288889-25.6 56.888889-56.888889 56.888889H170.666667c-31.288889 0-56.888889-25.6-56.888889-56.888889v-682.382222c0-31.288889 25.6-56.888889 56.888889-56.888889h369.777777c17.066667 0 28.444444-11.320889 28.444445-28.387555v-56.888889c0-17.066667-11.377778-28.444444-28.444445-28.444445H113.777778c-62.577778 0-113.777778 51.2-113.777778 113.777778V782.222222C0 844.8 51.2 896 113.777778 896z m-142.222222-230.286222c14.222222 0 25.6-11.377778 28.444444-28.444445v-56.888889c0-17.066667-14.222222-28.444444-28.444444-28.444444H568.888889v-426.439111c0-17.066667-14.222222-28.444444-28.444445-28.444445h-56.888888a28.444444 28.444444 0 0 0-28.444445 28.444445V551.992889H256a28.444444 28.444444 0 0 0-28.444444 28.444444v56.832c0 17.066667 14.222222 28.444444 28.444444 28.444445z"  horiz-adv-x="1024" />
      
      <glyph glyph-name="xinjian" unicode="&#59228;" d="M819.2 896H473.088a153.6 153.6 0 0 1-108.544-45.056L147.456 633.856A153.6 153.6 0 0 1 102.4 525.312V-25.6a102.4 102.4 0 0 1 102.4-102.4h614.4a102.4 102.4 0 0 1 102.4 102.4V793.6a102.4 102.4 0 0 1-102.4 102.4z m0-921.6H204.8V486.4h256a51.2 51.2 0 0 1 51.2 51.2V793.6h307.2v-819.2z m-153.6 236.544v38.912a25.6 25.6 0 0 1-25.6 25.6H557.056V358.4a25.6 25.6 0 0 1-25.6 25.6h-38.912a25.6 25.6 0 0 1-25.6-25.6v-82.944H384a25.6 25.6 0 0 1-25.6-25.6v-38.912a25.6 25.6 0 0 1 25.6-25.6h82.944v-82.944a25.6 25.6 0 0 1 25.6-25.6h38.912a25.6 25.6 0 0 1 25.6 25.6v82.944h82.944a25.6 25.6 0 0 1 25.6 25.6z"  horiz-adv-x="1024" />
      
      <glyph glyph-name="tingyong" unicode="&#59217;" d="M215.608889 896h1591.466667a113.777778 113.777778 0 0 0 113.095111-126.293333l-88.462223-796.444445A113.777778 113.777778 0 0 0 1718.613333-128H127.146667a113.777778 113.777778 0 0 0-113.095111 126.293333l88.462222 796.444445A113.777778 113.777778 0 0 0 215.608889 896zM589.596444 206.961778l8.874667 62.122666H491.975111l4.778667 36.181334h-36.864l15.018666 103.765333h393.898667l-15.018667-103.765333h-37.546666l-4.778667-36.181334H717.937778l-10.922667-77.824a43.121778 43.121778 0 0 0-17.749333-29.696 58.595556 58.595556 0 0 0-34.133334-9.898666H530.887111l58.709333 55.296zM474.908444 561.265778L417.564444 150.983111H300.145778l53.930666 385.024-38.229333-7.509333 11.605333 79.189333 158.378667 32.768-10.922667-79.189333z m387.754667-21.845334l-15.701333-109.226666H501.532444l15.701334 109.226666h345.429333z m-215.722667 70.314667l0.682667 4.096-22.528 25.258667h127.658667l-4.096-29.354667h148.138666l-6.826666-49.152H501.532444l6.826667 49.152h138.581333z m-96.938666-276.48h221.184l3.413333 21.845333H553.415111l-3.413333-21.845333z m202.752 137.216l4.096 27.989333h-146.773334l-4.096-27.989333h146.773334z m653.653333-256.682667l10.922667 77.824h-90.794667l-19.797333-141.312h-129.706667l19.797333 141.312h-96.256l-27.306666-141.312h-116.736l88.064 453.973334-21.162667 24.576h557.738667l-60.757334-433.493334a49.834667 49.834667 0 0 0-17.749333-32.426666 52.508444 52.508444 0 0 0-34.816-12.629334h-122.197333l60.757333 63.488z m-41.642667 350.208l-10.24-71.68h90.794667l10.24 71.68H1364.764444z m-29.354666-207.530666h90.794666l10.24 70.997333h-90.794666l-10.24-70.997333z m-221.866667 0h92.16l10.24 70.997333h-88.746667l-13.653333-70.997333z m25.941333 135.850666h85.333334l10.24 71.68h-81.237334l-14.336-71.68z"  horiz-adv-x="1934" />
      
      <glyph glyph-name="xiangqing1" unicode="&#59216;" d="M608.028444 576c52.963556 0 95.971556-43.008 95.971556-96.028444v-512c0-52.963556-43.008-95.971556-96.028444-95.971556h-512A96.028444 96.028444 0 0 0 0-31.971556v512c0 52.963556 43.008 95.971556 96.028444 95.971556h512z m0-96.028444h-512v-512h512v512zM927.914667 896C980.992 896 1024 852.992 1024 799.971556v-512c0-52.963556-43.008-95.971556-96.028444-95.971556H768v96.028444h160.028444v512h-512V640H320V800.028444C320 852.992 363.008 896 416.028444 896h512z"  horiz-adv-x="1024" />
      
      <glyph glyph-name="tishi1" unicode="&#59215;" d="M512 896a512 512 0 1 1 0-1024A512 512 0 0 1 512 896z m51.2-691.2a25.6 25.6 0 0 0-25.6-25.6h-51.2a25.6 25.6 0 0 0-25.6 25.6v51.2a25.6 25.6 0 0 0 25.6 25.6h51.2a25.6 25.6 0 0 0 25.6-25.6v-51.2z m-11.264 190.464A12.8 12.8 0 0 0 539.136 384h-54.272a12.8 12.8 0 0 0-12.8 11.264l-20.48 164.864a25.6 25.6 0 0 0 25.6 28.672h69.632a25.6 25.6 0 0 0 25.6-28.672l-20.48-164.864z"  horiz-adv-x="1024" />
      
      <glyph glyph-name="shangchuan" unicode="&#59213;" d="M563.808183 354.011429l217.234286-217.234286-72.448-72.411429-93.622858 93.586286V-128h-102.4v286.061714L418.985326 64.365714l-72.411429 72.411429 217.234286 217.234286z m0 541.988571a358.436571 358.436571 0 0 0 356.022857-317.147429 281.6 281.6 0 0 0-48.786286-552.118857v103.131429a179.2 179.2 0 1 1-56.941714 353.755428 256 256 0 1 1-500.589714 0 179.2 179.2 0 1 1-66.121143-352.256l9.216-1.536v-103.131428A281.6 281.6 0 0 0 207.748754 578.889143 358.4 358.4 0 0 0 563.808183 896z"  horiz-adv-x="1133" />
      
      <glyph glyph-name="fangda" unicode="&#59212;" d="M885.312 864h-186.624a26.688 26.688 0 0 1-26.688-26.688v-53.312c0-14.72 11.968-26.688 26.688-26.688h186.624v-186.624c0-14.72 11.968-26.688 26.688-26.688h53.312c14.72 0 26.688 11.968 26.688 26.688V757.312c0 58.88-47.744 106.688-106.688 106.688zM32 757.312v-186.624c0-14.72 11.968-26.688 26.688-26.688h53.312c14.72 0 26.688 11.968 26.688 26.688V757.312h186.624c14.72 0 26.688 11.968 26.688 26.688V837.312A26.688 26.688 0 0 1 325.312 864H138.688C79.808 864 32 816.256 32 757.312z m853.312-560v-186.624h-186.624a26.688 26.688 0 0 1-26.688-26.688v-53.312c0-14.72 11.968-26.688 26.688-26.688h186.624c58.88 0 106.688 47.744 106.688 106.688v186.624a26.688 26.688 0 0 1-26.688 26.688h-53.312a26.688 26.688 0 0 1-26.688-26.688zM112 224H58.688a26.688 26.688 0 0 1-26.688-26.688v-186.624c0-58.88 47.744-106.688 106.688-106.688h186.624c14.72 0 26.688 11.968 26.688 26.688v53.312a26.688 26.688 0 0 1-26.688 26.688H138.688v186.624a26.688 26.688 0 0 1-26.688 26.688z"  horiz-adv-x="1024" />
      
      <glyph glyph-name="apple" unicode="&#59210;" d="M925.856665 145.51147c-1.279969-3.925238-21.546146-74.024878-71.336943-146.129802-43.092292-62.206497-87.720547-124.967647-158.076179-126.034287-69.246327-1.279969-91.389791 40.95901-170.449215 40.95901-78.931426 0-103.677494-39.892369-169.126579-42.238979-67.667698-2.687935-119.762439 68.009023-162.982728 129.874194C105.481824 128.786541 37.430135 361.314255 128.69193 517.129156 173.66151 595.121938 254.384892 644.656741 342.276102 646.064707c66.302398 1.237303 129.362207-44.542924 169.595901-44.542924 41.385667 0 117.629157 55.337329 198.096546 47.060196 33.663186-1.407966 127.911575-13.908997 188.624775-101.245553-4.69322-3.242588-112.765275-66.430395-111.527971-195.109951 1.621294-155.302914 137.383347-206.245682 138.791312-206.75767M657.36182 731.822634c36.26579 43.902939 60.158546 104.232148 53.844033 164.177366-51.796082-2.005285-114.983888-34.132508-152.444316-77.822119-33.23653-38.057747-62.419825-99.368265-54.270689-158.588168 57.598608-3.413251 116.733179 29.908611 152.785641 72.232921"  horiz-adv-x="1024" />
      
      <glyph glyph-name="android" unicode="&#59211;" d="M957.866667 170.24h-8.96c-36.522667 0-66.005333 28.458667-66.005334 63.573333V491.477333c0 35.242667 29.482667 63.744 66.005334 63.744h8.96c36.522667 0 66.048-28.501333 66.048-63.744v-257.578666c0-35.157333-29.653333-63.616-66.005334-63.616z m-183.210667-95.616H702.72v-139.008c0-35.114667-29.610667-63.616-66.133333-63.616h-8.96c-36.522667 0-66.005333 28.501333-66.005334 63.616V74.666667h-111.146666v-139.008c0-35.114667-29.610667-63.616-66.133334-63.616h-8.96c-36.48 0-66.133333 28.501333-66.133333 63.616V74.666667H246.229333c-36.48 0-66.005333 28.458667-66.005333 63.573333V529.066667c0 6.912 0.256 13.653333 0.768 20.266666h658.901333c0.512-6.613333 0.768-13.482667 0.768-20.224v-390.698666c0-35.285333-29.482667-63.744-66.005333-63.744zM347.349333 795.690667L292.096 887.978667a4.394667 4.394667 0 0 0 1.621333 5.973333l2.645334 1.408a4.48 4.48 0 0 0 6.101333-1.621333l55.637333-93.013334a320.554667 320.554667 0 0 0 134.357334 29.269334h35.968c46.250667 0 90.154667-9.770667 129.493333-27.136l54.485333 90.88a4.693333 4.693333 0 0 0 6.144 1.621333l2.645334-1.365333c2.133333-1.28 2.858667-3.882667 1.621333-6.016l-54.016-90.112c87.381333-42.496 151.125333-123.349333 167.594667-219.605334H184.362667c16.128 94.506667 78.08 174.250667 162.986666 217.344z m311.722667-119.04c19.114667 0 34.602667 11.648 34.602667 26.026666 0 14.378667-15.488 25.984-34.602667 25.984-19.029333 0-34.517333-11.605333-34.517333-26.026666 0-14.336 15.36-25.984 34.517333-25.984z m-306.218667-2.858667c18.986667 0 34.474667 11.733333 34.474667 26.112 0 14.378667-15.488 26.026667-34.474667 26.026667-19.157333 0-34.517333-11.648-34.517333-26.026667-0.128-14.506667 15.36-26.112 34.517333-26.112zM75.008 170.24h-9.002667C29.610667 170.24 0 198.698667 0 233.813333V491.477333c0 35.242667 29.610667 63.744 66.005333 63.744h8.96c36.522667 0 66.133333-28.501333 66.133334-63.744v-257.578666c0-35.157333-29.482667-63.616-66.133334-63.616z"  horiz-adv-x="1024" />
      
      <glyph glyph-name="piliangchaxun" unicode="&#59208;" d="M247.48832-128c-14.4 0-28.416 4.672-39.936 13.312L45.05632 51.84A87.232 87.232 0 0 0 32.00032 97.92V699.968C32.00032 771.2 65.34432 804.608 136.96032 804.608h224.512a45.824 45.824 0 1 0 0-91.712H136.96032c-3.264 0-8.96 0-13.056-0.32-0.256-4.096-0.256-9.792-0.256-12.672v-567.68h96.768c70.912 0 71.744-1.792 71.744-74.368v-94.144h430.272c3.2 0 8.768 0 12.928 0.128 0.256 4.16 0.256 9.6 0.256 12.8V330.88a45.824 45.824 0 0 0 91.712 0v-354.112c0-71.36-33.344-104.704-104.96-104.704H247.55232z m45.056 382.528a46.016 46.016 0 1 0 0 92.032h275.456c25.344 0 45.888-20.48 45.952-45.888a46.528 46.528 0 0 0-46.144-46.08h-275.2z m641.024 138.88a45.44 45.44 0 0 0-32.448 13.504l-82.56 82.24a221.248 221.248 0 1 0 64.896 64.768l82.432-82.176a45.824 45.824 0 0 0-32.32-78.272z m-235.904 410.88a129.664 129.664 0 1 1 0.448-259.392 129.664 129.664 0 0 1-0.448 259.392zM292.60832 437.76a45.952 45.952 0 1 0 0 91.904h106.624c25.344 0 45.888-20.48 46.016-45.888a46.464 46.464 0 0 0-46.144-46.016H292.60832z"  horiz-adv-x="1024" />
      
      <glyph glyph-name="jinggao1" unicode="&#58932;" d="M559.652811 129.369695c-12.925381-12.961196-28.559453-19.407002-46.729278-19.407002-18.171871 0-34.18252 6.445806-47.176462 19.407002-13.440104 13.026688-19.885909 28.592198-19.885909 47.175439 0 18.171871 6.445806 34.250058 19.885909 47.176462 12.993942 13.473873 29.004591 19.953448 47.176462 19.953448 18.169825 0 33.770128-6.478552 46.729278-19.953448 13.473873-12.926404 19.919678-29.004591 19.919678-47.176462C579.57249 157.961894 573.126684 142.396383 559.652811 129.369695zM464.924333 574.351326c12.514012 13.406335 28.594245 20.331048 47.999201 20.331048 19.473517 0 35.518958-6.479575 48.067762-20.331048 12.135388-13.405311 18.581194-30.308283 18.581194-50.6731 0-17.279548-25.987884-145.847739-35.005258-239.34211l-62.774719 0c-7.371898 93.529163-35.930327 222.097354-35.930327 239.34211C445.862185 543.598928 452.342784 560.500876 464.924333 574.351326zM940.146709 137.186731 590.407256 747.456872c-42.822294 74.432223-112.557542 74.432223-155.344021 0L85.322759 137.186731c-42.787502-74.398454-7.817036-135.426389 77.895091-135.426389l699.44616 0C947.930999 1.760342 983.002772 62.787254 940.146709 137.186731z"  horiz-adv-x="1024" />
      
      <glyph glyph-name="shipin" unicode="&#59207;" d="M744.740571 896h-651.702857C41.691429 896 0 854.308571 0 802.889143v-651.629714c0-51.419429 41.691429-93.110857 93.110857-93.110858h651.629714c51.419429 0 93.110857 41.691429 93.110858 93.110858v651.702857C837.851429 854.308571 796.16 896 744.740571 896zM561.371429 448.219429L380.269714 327.241143a34.889143 34.889143 0 0 0-54.418285 28.818286v242.102857a34.889143 34.889143 0 0 0 54.418285 28.818285l181.101715-121.051428a34.377143 34.377143 0 0 0 0-57.709714z m369.517714 261.632v-651.702858c0-51.346286-41.691429-93.037714-93.037714-93.037714h-651.702858c0-51.419429 41.691429-93.110857 93.110858-93.110857h558.592A186.148571 186.148571 0 0 1 1024 58.148571V616.740571c0 51.419429-41.691429 93.110857-93.110857 93.110858z"  horiz-adv-x="1024" />
      
      <glyph glyph-name="tupian" unicode="&#59209;" d="M1024 782.189714C1024 845.092571 973.092571 896 910.189714 896H113.810286C50.907429 896 0 845.092571 0 782.189714v-796.379428C0-77.092571 50.907429-128 113.810286-128h796.379428c62.902857 0 113.810286 50.907429 113.810286 113.810286V782.189714zM369.810286 611.547429a85.357714 85.357714 0 1 0 0-170.642286 85.357714 85.357714 0 0 0 0 170.642286z m483.474285-540.452572a28.452571 28.452571 0 0 0-28.379428-28.452571H199.094857a28.452571 28.452571 0 0 0-28.452571 28.525714v18.724571c0 6.144 2.048 12.141714 5.705143 17.042286l134.802285 180.370286a29.037714 29.037714 0 0 0 46.08 0l56.905143-77.385143a28.452571 28.452571 0 0 1 44.982857 0l130.194286 163.84a28.452571 28.452571 0 0 0 44.397714 0l212.845715-265.654857a29.549714 29.549714 0 0 0 6.217142-18.285714l0.585143-18.724572z"  horiz-adv-x="1024" />
      
      <glyph glyph-name="dengdai" unicode="&#59206;" d="M28.608725 570.573627a23.679008 23.679008 0 0 0 17.535265 14.911376 25.214944 25.214944 0 0 0 21.119116 0l45.758084-26.238901c11.135534-6.143743 15.99933-19.58318 11.327526-31.358687a429.61401 429.61401 0 0 1-19.071202-72.572961 25.726923 25.726923 0 0 0-25.214944-21.631094H28.608725a26.75088 26.75088 0 0 0-22.591054 4.607807 26.75088 26.75088 0 0 0-5.695762 20.607137 478.507962 478.507962 0 0 0 28.286816 111.675323z m81.276596 140.410121a24.702966 24.702966 0 0 1-5.119785-20.54314c1.215949-7.423689 5.759759-13.887418 12.351482-17.535266l45.822082-28.798794a24.702966 24.702966 0 0 1 32.382644 5.695762c14.591389 17.599263 30.718714 33.790585 48.381974 48.317976a24.702966 24.702966 0 0 1 8.255654 35.006534l-26.238901 45.822082a24.190987 24.190987 0 0 1-17.535266 12.351482 24.702966 24.702966 0 0 1-20.54314-5.119785 471.340263 471.340263 0 0 1-77.692746-75.196851z m228.470433 74.108896a25.726923 25.726923 0 0 1 31.358687-11.327525 429.61401 429.61401 0 0 0 72.636958 19.071201 25.726923 25.726923 0 0 1 21.567097 25.214944V869.505109a26.75088 26.75088 0 0 1-6.143743 20.54314 26.75088 26.75088 0 0 1-20.607137 5.695762 478.507962 478.507962 0 0 1-109.051433-28.286816 23.679008 23.679008 0 0 1-14.911376-15.487351 25.214944 25.214944 0 0 1 0-21.119116l25.150947-45.758084zM583.849474 895.744011a25.726923 25.726923 0 0 1-29.37477-25.726923v-51.453845a25.726923 25.726923 0 0 1 21.119116-25.726923 411.630763 411.630763 0 1 0-472.300223-472.300222 25.726923 25.726923 0 0 1-25.79092 21.055118H26.048832a25.726923 25.726923 0 0 1-25.726923-29.37477A514.538454 514.538454 0 1 1 583.849474 895.744011zM226.232449 432.659402a25.726923 25.726923 0 0 1-25.726922-25.726922v-39.102363c0-14.207405 11.519518-25.726923 25.726922-25.726923H528.683784a26.238901 26.238901 0 0 1 25.726923 25.726923v302.067351a25.726923 25.726923 0 0 1-25.726923 25.662925h-39.038365a25.726923 25.726923 0 0 1-25.79092-25.726922v-237.686047L226.232449 432.659402z"  horiz-adv-x="1024" />
      
      <glyph glyph-name="xiazai" unicode="&#59204;" d="M933.647059-37.647059v-60.235294a30.117647 30.117647 0 0 0-30.117647-30.117647H120.470588a30.117647 30.117647 0 0 0-30.117647 30.117647v60.235294a30.117647 30.117647 0 0 0 30.117647 30.117647h783.058824a30.117647 30.117647 0 0 0 30.117647-30.117647z m-442.729412 159.62353a28.912941 28.912941 0 0 1 42.164706 0l348.762353 348.762353a30.117647 30.117647 0 0 1 0 42.767058l-12.047059 12.047059a29.515294 29.515294 0 0 1-21.684706 9.035294H692.705882V865.882353a30.117647 30.117647 0 0 1-30.117647 30.117647h-301.17647a30.117647 30.117647 0 0 1-30.117647-30.117647V534.588235H175.887059a29.515294 29.515294 0 0 1-21.684706-9.035294l-12.047059-12.047059a30.117647 30.117647 0 0 1 0-42.767058l348.762353-348.762353z"  horiz-adv-x="1024" />
      
      <glyph glyph-name="zhangdan" unicode="&#59203;" d="M214.015833-120.318476a24.063964 24.063964 0 0 1 17.919973-7.679988h14.847977a24.063964 24.063964 0 0 1 17.919974 7.679988L358.399616-25.598618a26.111961 26.111961 0 0 0 36.351945 0l92.671861-92.671861a24.063964 24.063964 0 0 1 17.919974-7.679988h14.847977a24.063964 24.063964 0 0 1 17.919973 7.679988L630.783207-25.598618a26.111961 26.111961 0 0 0 34.815948 0l92.671861-92.671861a24.063964 24.063964 0 0 1 17.919973-7.679988h14.847978a24.063964 24.063964 0 0 1 17.919973 7.679988L906.750793-25.598618a51.199923 51.199923 0 0 1 14.847978 35.839947V844.800077a51.199923 51.199923 0 0 1-51.199923 51.199923H153.599923a51.199923 51.199923 0 0 1-51.199923-51.199923v-832.510751c0.2048-13.56798 5.478392-26.52156 14.847978-36.351946l96.767855-96.255856zM563.199309 307.200883a25.599962 25.599962 0 0 0-25.599962-25.599961h-204.799693a25.599962 25.599962 0 0 0-25.599961 25.599961v51.199923a25.599962 25.599962 0 0 0 25.599961 25.599962h204.799693a25.599962 25.599962 0 0 0 25.599962-25.599962v-51.199923z m153.599769 204.799693a25.599962 25.599962 0 0 0-25.599961-25.599962h-358.399463a25.599962 25.599962 0 0 0-25.599961 25.599962v51.199923a25.599962 25.599962 0 0 0 25.599961 25.599962h358.399463a25.599962 25.599962 0 0 0 25.599961-25.599962v-51.199923z"  horiz-adv-x="1024" />
      
      <glyph glyph-name="a-yiwancheng1x" unicode="&#59202;" d="M1249.620177 864.516329A100.850133 100.850133 0 0 1 1103.208309 864.388347L396.105535 131.56111 176.743698 358.729875a101.106098 101.106098 0 0 1-146.539851 0 110.576796 110.576796 0 0 1 0-151.659147l293.079702-303.702241a101.106098 101.106098 0 0 1 146.411868-0.127983c0.767894 0.767894 1.023859 1.919736 1.791754 2.815613l778.133006 806.5451a110.576796 110.576796 0 0 1 0 151.915112z"  horiz-adv-x="1280" />
      
      <glyph glyph-name="a-jiazaizhong1x" unicode="&#59201;" d="M512 601.746286a41.179429 41.179429 0 0 0-41.179429 41.179428V854.820571a41.179429 41.179429 0 1 0 82.358858 0V642.925714A41.179429 41.179429 0 0 0 512 601.746286zM512-128a41.179429 41.179429 0 0 0-41.179429 41.179429V125.074286a41.179429 41.179429 0 0 0 82.358858 0v-211.894857A41.179429 41.179429 0 0 0 512-128z m153.965714 665.965714a41.179429 41.179429 0 0 0 0 58.294857l149.796572 149.796572a41.179429 41.179429 0 1 0 58.294857-58.294857L724.260571 537.965714a41.179429 41.179429 0 0 0-58.294857 0zM149.942857 21.942857a41.179429 41.179429 0 0 0 0 58.294857l149.796572 149.796572a41.179429 41.179429 0 1 0 58.294857-58.294857L208.237714 21.942857a41.179429 41.179429 0 0 0-58.294857 0zM729.746286 384c0 22.747429 18.432 41.179429 41.179428 41.179429h211.894857a41.179429 41.179429 0 0 0 0-82.358858H770.925714A41.179429 41.179429 0 0 0 729.746286 384zM0 384c0 22.747429 18.432 41.179429 41.179429 41.179429H253.074286a41.179429 41.179429 0 1 0 0-82.358858H41.179429A41.179429 41.179429 0 0 0 0 384z m665.965714-153.965714a41.179429 41.179429 0 0 0 58.294857 0l149.796572-149.796572a41.179429 41.179429 0 1 0-58.294857-58.294857L665.965714 171.739429a41.179429 41.179429 0 0 0 0 58.294857zM149.942857 746.057143a41.179429 41.179429 0 0 0 58.294857 0l149.796572-149.796572a41.179429 41.179429 0 1 0-58.294857-58.294857L149.942857 687.762286a41.179429 41.179429 0 0 0 0 58.294857z"  horiz-adv-x="1024" />
      
      <glyph glyph-name="menu-workOrder" unicode="&#59200;" d="M512 896c60.509091 0 111.709091-39.098182 131.258182-93.090909H837.818182c51.2 0 93.090909-41.890909 93.090909-93.090909v-744.727273c0-51.2-41.890909-93.090909-93.090909-93.090909H186.181818c-51.2 0-93.090909 41.890909-93.090909 93.090909V709.818182c0 51.2 41.890909 93.090909 93.090909 93.090909h194.56C400.290909 856.901818 451.490909 896 512 896z m68.049455-563.2h-293.236364c-20.200727 0-36.631273-11.450182-36.631273-25.6v-51.2c0-14.149818 16.430545-25.6 36.631273-25.6h293.236364c20.247273 0 36.677818 11.450182 36.677818 25.6v51.2c0 14.149818-16.430545 25.6-36.677818 25.6z m161.047272 204.8H282.903273c-18.059636 0-32.721455-11.450182-32.721455-25.6v-51.2c0-14.149818 14.661818-25.6 32.721455-25.6h458.193454c18.059636 0 32.721455 11.450182 32.721455 25.6v51.2c0 14.149818-14.661818 25.6-32.721455 25.6zM512 802.909091c-25.6 0-46.545455-20.945455-46.545455-46.545455s20.945455-46.545455 46.545455-46.545454 46.545455 20.945455 46.545455 46.545454-20.945455 46.545455-46.545455 46.545455z"  horiz-adv-x="1024" />
      
      <glyph glyph-name="a-yuanshiwendang1x" unicode="&#59193;" d="M992 896a64 64 0 0 0 63.84-59.2L1056 832v-896a64 64 0 0 0-59.2-63.84L992-128H288a64 64 0 0 0-63.84 59.2L224-64v140.8h59.424v-121.6a32 32 0 0 1 28.288-31.776l3.712-0.224h649.152a32 32 0 0 1 31.776 28.256l0.224 3.744V812.8a32 32 0 0 1-28.288 31.776l-3.712 0.224H315.424a32 32 0 0 1-31.776-28.256l-0.224-3.744v-121.6H224V832A64 64 0 0 0 283.2 895.84L288 896h704zM448 640a64 64 0 0 0 63.84-59.2L512 576v-384a64 64 0 0 0-59.2-63.84L448 128H64a64 64 0 0 0-63.84 59.2L0 192V576a64 64 0 0 0 59.2 63.84L64 640h384z m-254.688-111.456h-72l103.552-143.36-115.808-145.728h74.56l70.464 95.424 2.464 2.912 2.112 3.168 0.32-0.608 69.696-100.864h74.24l-109.92 143.776 103.52 145.28h-73.664l-2.976-4.8c-12.64-20-49.824-78.88-58.656-91.84l-1.152-1.664-1.472-2.848-1.44 1.888-1.536 1.856-62.304 97.408zM896 307.77599999999995V256H576v51.776h320z m0 118.08v-51.776H576v51.776h320zM896 544v-51.776H576V544h320z"  horiz-adv-x="1056" />
      
      <glyph glyph-name="a-chulijieguo1x" unicode="&#59194;" d="M992 896a64 64 0 0 0 63.84-59.2L1056 832v-896a64 64 0 0 0-59.2-63.84L992-128H288a64 64 0 0 0-63.84 59.2L224-64v140.8h59.424v-121.6a32 32 0 0 1 28.288-31.776l3.712-0.224h649.152a32 32 0 0 1 31.776 28.256l0.224 3.744V812.8a32 32 0 0 1-28.288 31.776l-3.712 0.224H315.424a32 32 0 0 1-31.776-28.256l-0.224-3.744v-121.6H224V832A64 64 0 0 0 283.2 895.84L288 896h704zM448 640a64 64 0 0 0 63.84-59.2L512 576v-384a64 64 0 0 0-59.2-63.84L448 128H64a64 64 0 0 0-63.84 59.2L0 192V576a64 64 0 0 0 59.2 63.84L64 640h384z m-254.688-111.456h-72l103.552-143.36-115.808-145.728h74.56l70.464 95.424 2.464 2.912 2.112 3.168 0.32-0.608 69.696-100.864h74.24l-109.92 143.776 103.52 145.28h-73.664l-2.976-4.8c-12.64-20-49.824-78.88-58.656-91.84l-1.152-1.664-1.472-2.848-1.44 1.888-1.536 1.856-62.304 97.408zM896 307.77599999999995V256H576v51.776h320z m0 118.08v-51.776H576v51.776h320zM896 544v-51.776H576V544h320zM576-128h416a64 64 0 0 1 64 64V352L576-128zM986.016 92.79999999999995a11.2 11.2 0 0 1-15.68 0l-105.984-106.016-33.536 33.344a10.72 10.72 0 0 1-15.68 0l-11.84-11.84a11.2 11.2 0 0 1 0-15.904l52.576-52.992a10.72 10.72 0 0 1 15.648 0l125.696 125.696a11.2 11.2 0 0 1 0 15.872l-11.2 11.84z"  horiz-adv-x="1056" />
      
      <glyph glyph-name="shibaijilu" unicode="&#59192;" d="M992 896a64 64 0 0 0 63.84-59.2L1056 832v-896a64 64 0 0 0-59.2-63.84L992-128H288a64 64 0 0 0-63.84 59.2L224-64v140.8h59.424v-121.6a32 32 0 0 1 28.288-31.776l3.712-0.224h649.152a32 32 0 0 1 31.776 28.256l0.224 3.744V812.8a32 32 0 0 1-28.288 31.776l-3.712 0.224H315.424a32 32 0 0 1-31.776-28.256l-0.224-3.744v-121.6H224V832A64 64 0 0 0 283.2 895.84L288 896h704zM448 640a64 64 0 0 0 63.84-59.2L512 576v-384a64 64 0 0 0-59.2-63.84L448 128H64a64 64 0 0 0-63.84 59.2L0 192V576a64 64 0 0 0 59.2 63.84L64 640h384z m-254.688-111.456h-72l103.552-143.36-115.808-145.728h74.56l70.464 95.424 2.464 2.912 2.112 3.168 0.32-0.608 69.696-100.864h74.24l-109.92 143.776 103.52 145.28h-73.664l-2.976-4.8c-12.64-20-49.824-78.88-58.656-91.84l-1.152-1.664-1.472-2.848-1.44 1.888-1.536 1.856-62.304 97.408zM896 307.77599999999995V256H576v51.776h320z m0 118.08v-51.776H576v51.776h320zM896 544v-51.776H576V544h320zM576-128h416a64 64 0 0 1 64 64V352L576-128zM988.256 79.168l-13.088 13.12a11.84 11.84 0 0 1-17.28 0L912 46.559999999999945l-45.92 45.664a11.84 11.84 0 0 1-17.28 0l-13.056-13.088a11.84 11.84 0 0 1 0-17.28l45.664-45.888-45.664-45.92a11.84 11.84 0 0 1 0-17.28l13.088-13.056a11.84 11.84 0 0 1 17.28 0l45.888 45.664 45.92-45.664a11.84 11.84 0 0 1 17.28 0l13.056 13.088a11.84 11.84 0 0 1 0 17.28L942.592 16l45.664 45.92a11.84 11.84 0 0 1 0 17.28z"  horiz-adv-x="1056" />
      
      <glyph glyph-name="tianjiawenjian" unicode="&#59191;" d="M819.2 896H473.088a153.6 153.6 0 0 1-108.544-45.056L147.456 633.856A153.6 153.6 0 0 1 102.4 525.312V-25.6a102.4 102.4 0 0 1 102.4-102.4h614.4a102.4 102.4 0 0 1 102.4 102.4V793.6a102.4 102.4 0 0 1-102.4 102.4z m0-921.6H204.8V486.4h256a51.2 51.2 0 0 1 51.2 51.2V793.6h307.2v-819.2z m-153.6 236.544v38.912a25.6 25.6 0 0 1-25.6 25.6H557.056V358.4a25.6 25.6 0 0 1-25.6 25.6h-38.912a25.6 25.6 0 0 1-25.6-25.6v-82.944H384a25.6 25.6 0 0 1-25.6-25.6v-38.912a25.6 25.6 0 0 1 25.6-25.6h82.944v-82.944a25.6 25.6 0 0 1 25.6-25.6h38.912a25.6 25.6 0 0 1 25.6 25.6v82.944h82.944a25.6 25.6 0 0 1 25.6 25.6z"  horiz-adv-x="1024" />
      
      <glyph glyph-name="shuaxin" unicode="&#59190;" d="M12.8 384a492.8 492.8 0 0 1 492.8-492.8 486.784 486.784 0 0 1 282.56 89.28 27.392 27.392 0 0 1 3.84 41.6l-39.424 39.936a27.392 27.392 0 0 1-34.56 3.328A378.368 378.368 0 0 0 505.6 0.64 383.296 383.296 0 1 0 888.896 384h-129.28a26.88 26.88 0 0 1-19.648-8.192l-10.944-10.944a27.392 27.392 0 0 1 0-38.912l193.28-193.856c10.816-10.496 28.032-10.496 38.848 0l193.28 193.92a27.392 27.392 0 0 1 0 38.848l-10.88 10.88A26.88 26.88 0 0 1 1123.712 384H998.4A492.8 492.8 0 0 1 12.8 384z"  horiz-adv-x="1216" />
      
      <glyph glyph-name="wubeizhu2" unicode="&#59188;" d="M1137.792 896h-1024C51.2 896 0 844.8 0 782.208v-682.624c0-62.592 51.2-113.792 113.792-113.792h284.416V-128h455.104v113.792h284.48c62.592 0 113.216 51.2 113.216 113.792l0.576 682.624C1251.584 844.8 1200.384 896 1137.792 896z m0-796.416h-1024V782.208h1024v-682.624z m-113.792 512H398.208v-113.792H1024V611.584zM1024 384H398.208v-113.792H1024V384zM341.312 611.584H227.584v-113.792h113.728V611.584z m0-227.584H227.584v-113.792h113.728V384z"  horiz-adv-x="1280" />
      
      <glyph glyph-name="youbeizhu2" unicode="&#59189;" d="M921.6-4.608V588.8l-307.2 307.2H204.8C148.48 896 102.912 849.92 102.912 793.6L102.4-25.6c0-56.32 45.568-102.4 101.888-102.4H819.2c23.04 0 43.52 7.68 60.928 20.48l-226.816 226.816c-40.96-26.624-89.088-42.496-141.312-42.496-141.312 0-256 114.688-256 256s114.688 256 256 256 256-114.688 256-256c0-52.224-15.872-100.352-42.496-140.8L921.6-4.608zM358.4 332.8c0-84.992 68.608-153.6 153.6-153.6s153.6 68.608 153.6 153.6-68.608 153.6-153.6 153.6-153.6-68.608-153.6-153.6z"  horiz-adv-x="1024" />
      
      <glyph glyph-name="bianji" unicode="&#59186;" d="M786.146653 498.590067a28.392508 28.392508 0 0 0 0-39.749511L328.70146-0.46644a113.523486 113.523486 0 0 0-38.632429-25.599802L43.752389-125.905471a28.392508 28.392508 0 0 0-30.626672 6.237043 28.392508 28.392508 0 0 0-10.798462 35.234637l97.651609 246.363187a113.570032 113.570032 0 0 0 25.506712 38.632429L583.535854 658.612103a28.392508 28.392508 0 0 0 40.308053 0l162.302746-160.115126z m212.850718 334.938503l-37.468801 37.468801A85.130979 85.130979 0 0 1 901.392307 895.992087h-43.147303a85.130979 85.130979 0 0 1-61.299889-24.994716l-102.725025-103.888651a28.392508 28.392508 0 0 1 0-39.749511l159.51004-161.79075a28.392508 28.392508 0 0 1 40.261507 0l105.005734 103.33011A85.177524 85.177524 0 0 1 1023.992087 730.198459v43.147303c0 22.574371-9.029748 44.21784-24.994716 60.182808z"  horiz-adv-x="1024" />
      
      <glyph glyph-name="shanchu" unicode="&#59187;" d="M904.53317 768.000053v-51.199978a25.599989 25.599989 0 0 0-25.59999-25.59999H110.9335a25.599989 25.599989 0 0 0-25.599989 25.59999V768.000053a25.599989 25.599989 0 0 0 25.599989 25.59999H341.333404V844.800021A51.199979 51.199979 0 0 0 392.533383 896H597.333298a51.199979 51.199979 0 0 0 51.199978-51.199979v-51.199978h230.399904a25.599989 25.599989 0 0 0 25.59999-25.59999z m-190.463921-691.199712H275.797432L238.933447 588.800128H136.53349l44.543981-621.567741A102.399957 102.399957 0 0 1 283.477429-127.999573h423.935823a102.399957 102.399957 0 0 1 102.399957 95.23196L853.333191 588.800128h-102.399957l-36.863985-511.999787z"  horiz-adv-x="1024" />
      
      <glyph glyph-name="yifasong" unicode="&#59184;" d="M1105.92 896H122.88A122.88 122.88 0 0 1 0 773.12v-737.28a122.88 122.88 0 0 1 122.88-122.88h983.04a122.88 122.88 0 0 1 122.88 122.88V773.12A122.88 122.88 0 0 1 1105.92 896z m0-430.08l-390.144-273.408a176.9472 176.9472 0 0 0-202.752 0L122.88 465.92V594.944l451.584-316.416c24.029867-16.657067 55.842133-16.657067 79.872 0L1105.92 594.944V465.92z"  horiz-adv-x="1228" />
      
      <glyph glyph-name="weifasong" unicode="&#59185;" d="M1014.727111 872.789333l-14.791111 14.791111a28.444444 28.444444 0 0 1-19.911111 7.964445 26.680889 26.680889 0 0 1-9.614222 0L18.830222 554.382222a28.444444 28.444444 0 0 1-18.773333-29.013333v-9.102222a29.013333 29.013333 0 0 1 16.497778-26.168889l408.462222-192.739556 192.625778-408.860444a29.013333 29.013333 0 0 1 26.112-16.497778h9.102222a28.444444 28.444444 0 0 1 26.737778 18.773333L1022.577778 843.264a28.444444 28.444444 0 0 1-7.907556 29.582222z m-376.604444-760.832l-69.973334 151.267556a113.777778 113.777778 0 0 0 19.342223 125.724444l88.632888 96.028445a28.444444 28.444444 0 0 1 0 39.253333l-21.617777 21.617778a28.387556 28.387556 0 0 1-39.139556 0l-96.028444-88.746667a113.550222 113.550222 0 0 0-128.398223-16.497778l-151.096888 69.973334L860.728889 733.468444l-222.72-621.511111z"  horiz-adv-x="1024" />
      
      <glyph glyph-name="fangdajing" unicode="&#59183;" d="M1013.716562-60.082502l-270.251082 304.626727a407.680522 407.680522 0 0 1 77.893749 240.775795c0 109.709506-42.640428 212.836441-120.241618 290.364491A408.411919 408.411919 0 0 1 410.75312 895.999269c-109.709506 0-212.98272-42.713567-290.437631-120.314758A408.411919 408.411919 0 0 1 0.000731 485.32002c0-109.709506 42.713567-212.90958 120.314758-290.364492a408.411919 408.411919 0 0 1 290.364491-120.314757A408.26564 408.26564 0 0 1 688.976426 183.253181l263.741651-297.459039a40.665657 40.665657 0 0 1 57.634061-3.437565 40.811936 40.811936 0 0 1 3.437564 57.560921z m-603.036582 216.274005a329.494215 329.494215 0 0 0-329.128516 329.128517c0 181.459522 147.668994 329.128517 329.128516 329.128516 181.532662 0 329.128517-147.668994 329.128517-329.128516 0-181.532662-147.595855-329.128517-329.128517-329.128517z"  horiz-adv-x="1024" />
      
      <glyph glyph-name="xiaoxizhongxin" unicode="&#59182;" d="M409.6-25.6h204.8a102.4 102.4 0 1 0-204.8 0z m497.152 219.648l-42.496 42.496a153.6 153.6 0 0 0-45.056 108.544V486.4a307.2 307.2 0 0 1-61.44 184.32l-46.08 61.44A153.6 153.6 0 0 1 588.8 793.6H563.2V870.4a25.6 25.6 0 0 1-25.6 25.6h-51.2a25.6 25.6 0 0 1-25.6-25.6V793.6h-25.6a153.6 153.6 0 0 1-122.88-61.44l-46.08-61.44A307.2 307.2 0 0 1 204.8 486.4v-141.312a153.6 153.6 0 0 0-45.056-108.544l-42.496-42.496a51.2 51.2 0 0 1-14.848-35.84V128a51.2 51.2 0 0 1 51.2-51.2h716.8a51.2 51.2 0 0 1 51.2 51.2v30.208a51.2 51.2 0 0 1-14.848 35.84z"  horiz-adv-x="1024" />
      
      <glyph glyph-name="milestone-created" unicode="&#59180;" d="M176.639247-120.31390199999998a28.774227 28.774227 0 0 1 20.172679-7.679954h16.742299a28.774227 28.774227 0 0 1 20.12148 7.679954L339.095872-25.59447a32.051008 32.051008 0 0 0 40.908555 0l104.242574-92.671444a28.774227 28.774227 0 0 1 20.172679-7.679954h16.6911a28.774227 28.774227 0 0 1 20.172679 7.679954L645.526033-25.59447a32.153407 32.153407 0 0 0 39.167765 0l104.242575-92.671444a28.774227 28.774227 0 0 1 20.172679-7.679954h16.6911a28.774227 28.774227 0 0 1 20.172679 7.679954L956.000971-25.59447a48.486109 48.486109 0 0 1 16.691099 35.839785V844.800307c0 28.26223-25.804645 51.199693-57.599654 51.199693H108.697254C76.902245 896 51.0976 873.062538 51.0976 844.800307v-832.507005c0.204799-13.567919 6.143963-26.521441 16.6911-36.351782l108.850547-96.255422zM614.294221 307.203533c0-14.131115-16.025504-25.599846-35.839785-25.599847H291.736156c-19.814281 0-35.839785 11.468731-35.839785 25.599847v51.199693c0 14.131115 16.025504 25.599846 35.839785 25.599846h286.71828c19.814281 0 35.839785-11.468731 35.839785-25.599846v-51.199693z m153.599078 204.798771c0-14.131115-14.335914-25.599846-31.999808-25.599846h-447.997312C270.232285 486.402458 255.896371 497.871189 255.896371 512.002304v51.199693c0 14.131115 14.335914 25.599846 31.999808 25.599846h447.997312c17.663894 0 31.999808-11.468731 31.999808-25.599846v-51.199693z"  horiz-adv-x="1024" />
      
      <glyph glyph-name="milestone-closed" unicode="&#59181;" d="M915.194816 896C946.989825 896 972.79447 873.062538 972.79447 844.800307v-834.554992a48.486109 48.486109 0 0 0-16.691099-35.839785l-110.02814-92.671444a28.774227 28.774227 0 0 0-20.172679-7.679954h-16.6911a28.774227 28.774227 0 0 0-20.172679 7.679954L684.796198-25.59447a32.153407 32.153407 0 0 1-39.167765 0l-104.242574-92.671444a28.774227 28.774227 0 0 0-20.172679-7.679954h-16.6911a28.774227 28.774227 0 0 0-20.172679 7.679954L380.106827-25.59447a32.051008 32.051008 0 0 1-40.908555 0l-105.420167-94.719432a28.774227 28.774227 0 0 0-20.12148-7.679954h-16.742299a28.774227 28.774227 0 0 0-20.172679 7.679954L67.8911-24.05848000000003A50.841295 50.841295 0 0 0 51.2 12.29330200000004V844.800307c0 28.26223 25.804645 51.199693 57.599654 51.199693z m-268.798387-255.998464a32.767803 32.767803 0 0 1-23.859057-10.342338L511.997235 519.7846569999999 401.457098 629.6591980000001a32.767803 32.767803 0 0 1-47.769313 0l-36.146983-36.146983a32.767803 32.767803 0 0 1 0-47.769313L427.415343 435.202765l-109.874541-110.540137a32.767803 32.767803 0 0 1 0-47.769313l36.146983-36.146983a32.767803 32.767803 0 0 1 47.769313 0L511.997235 350.62087199999996l110.540137-109.87454a32.767803 32.767803 0 0 1 47.769313 0l36.146983 36.146983a32.767803 32.767803 0 0 1 0 47.769313L596.579128 435.202765l109.87454 110.540137a32.767803 32.767803 0 0 1 0 47.769313l-36.146983 36.146983A32.767803 32.767803 0 0 1 646.396429 640.001536z"  horiz-adv-x="1024" />
      
      <glyph glyph-name="milestone-failed" unicode="&#59177;" d="M915.194816 896C946.989825 896 972.79447 873.062538 972.79447 844.800307v-834.554992a48.486109 48.486109 0 0 0-16.691099-35.839785l-110.02814-92.671444a28.774227 28.774227 0 0 0-20.172679-7.679954h-16.6911a28.774227 28.774227 0 0 0-20.172679 7.679954L684.796198-25.59447a32.153407 32.153407 0 0 1-39.167765 0l-104.242574-92.671444a28.774227 28.774227 0 0 0-20.172679-7.679954h-16.6911a28.774227 28.774227 0 0 0-20.172679 7.679954L380.106827-25.59447a32.051008 32.051008 0 0 1-40.908555 0l-105.420167-94.719432a28.774227 28.774227 0 0 0-20.12148-7.679954h-16.742299a28.774227 28.774227 0 0 0-20.172679 7.679954L67.8911-24.05848000000003A50.841295 50.841295 0 0 0 51.2 12.29330200000004V844.800307c0 28.26223 25.804645 51.199693 57.599654 51.199693zM558.537756 281.60368600000004h-102.399386v-102.399385h102.399386v102.399385z m0 409.597543h-102.399386v-307.198157h102.399386V691.201229z"  horiz-adv-x="1024" />
      
      <glyph glyph-name="milestone-pending" unicode="&#59178;" d="M915.19568 896c29.695852 0 54.118129-19.9679 57.241314-45.618972L972.795392 844.800256v-834.555827a47.769361 47.769361 0 0 0-12.441538-31.539043l-4.249579-4.300778-110.028249-92.671537a28.262259 28.262259 0 0 0-15.615922-7.372763l-4.556778-0.307198h-16.691116a29.337453 29.337453 0 0 0-16.793516 4.966375l-3.379183 2.713586L684.796832-25.595391999999947a32.255839 32.255839 0 0 1-34.764626 2.918385L645.629028-25.595391999999947l-104.242679-92.671537a28.262259 28.262259 0 0 0-15.667122-7.372763l-4.505577-0.307198h-16.691117a29.337453 29.337453 0 0 0-16.793516 4.966375l-3.379183 2.713586L380.107155-25.595391999999947a32.255839 32.255839 0 0 1-36.863815 2.918385L339.19856-25.595391999999947l-105.420273-94.719526a28.262259 28.262259 0 0 0-15.615922-7.372764L213.656788-127.99487999999997h-16.742317a29.388653 29.388653 0 0 0-16.793516 4.966375l-3.379183 2.713587-108.850655 96.255518a51.609342 51.609342 0 0 0-16.12792 29.644652L51.2 12.292418999999995V844.800256C51.2 871.168124 73.676688 892.928015 102.502143 895.692802L108.799712 896h806.395968zM511.997696 742.400768a307.198464 307.198464 0 1 1 0-614.396928A307.198464 307.198464 0 0 1 511.997696 742.400768z m-8.703956-102.399488c6.911965 0 12.492738-6.297569 12.492737-14.233529v-179.199104h137.317713c6.860766 0 12.492738-6.399968 12.492738-14.233529v-34.099029h-0.102399c0-7.833561-5.631972-14.233529-12.441538-14.233529l-149.349654 0.102399L503.29374 384.00256h-30.00305C466.429924 384.00256 460.797952 390.402528 460.797952 398.236089V625.767751C460.797952 633.601312 466.429924 640.00128 473.29069 640.00128h30.00305z"  horiz-adv-x="1024" />
      
      <glyph glyph-name="milestone-success" unicode="&#59179;" d="M915.194816 896C946.989825 896 972.79447 873.062538 972.79447 844.800307v-834.554992a48.486109 48.486109 0 0 0-16.691099-35.839785l-110.02814-92.671444a28.774227 28.774227 0 0 0-20.172679-7.679954h-16.6911a28.774227 28.774227 0 0 0-20.172679 7.679954L684.796198-25.59447a32.153407 32.153407 0 0 1-39.167765 0l-104.242574-92.671444a28.774227 28.774227 0 0 0-20.172679-7.679954h-16.6911a28.774227 28.774227 0 0 0-20.172679 7.679954L380.106827-25.59447a32.051008 32.051008 0 0 1-40.908555 0l-105.420167-94.719432a28.774227 28.774227 0 0 0-20.12148-7.679954h-16.742299a28.774227 28.774227 0 0 0-20.172679 7.679954L67.8911-24.05848000000003A50.841295 50.841295 0 0 0 51.2 12.29330200000004V844.800307c0 28.26223 25.804645 51.199693 57.599654 51.199693z m-176.74134-234.494593l-337.405975-337.405976-132.607204 132.095208L196.24873 384.003072l204.798771-204.798771 409.597542 409.597542-72.191567 72.703564z"  horiz-adv-x="1024" />
      
      <glyph glyph-name="wo-edit" unicode="&#59174;" d="M995.272977-14.24354900000003c15.675102 0 28.407123-12.796001 28.407123-28.471103v-56.878225a28.407123 28.407123 0 0 0-28.407123-28.407123H28.407123A28.407123 28.407123 0 0 0 0-99.59287700000004v56.942205c0 15.675102 12.732021 28.407123 28.407123 28.407123h966.865854z m-285.990628 685.993627l4.478601-3.58288 82.406248-82.470228a28.471103 28.471103 0 0 0 3.58288-35.380944l-3.58288-4.41462-377.034177-373.003437a113.756451 113.756451 0 0 0-30.134583-21.369322l-8.509341-3.71084-113.756451-44.913964a28.407123 28.407123 0 0 0-27.063543 3.13502l-3.64686 3.13502-3.13502 3.646861a28.471103 28.471103 0 0 0-4.734521 21.497282l1.5995 5.56626 44.913965 113.692471c4.4786 11.580381 10.876601 22.329022 18.810122 31.798063l6.20606 6.909841 374.283037 375.882537a28.471103 28.471103 0 0 0 35.316963 3.58288z m234.166823 223.930022c12.476101 0 24.504342-4.1587 34.293283-11.644361l5.566261-4.862481 23.864542-23.864542a56.878226 56.878226 0 0 0 15.995002-32.437863l0.51184-7.357701v-17.082662a56.878226 56.878226 0 0 0-11.644361-34.229303l-4.862481-5.56626-102.36801-102.36801a28.471103 28.471103 0 0 0-35.380943-3.582881l-4.414621 3.582881-80.742767 80.742767a28.471103 28.471103 0 0 0-3.582881 35.380944l3.582881 4.4786 102.36801 102.36801a56.878226 56.878226 0 0 0 32.373883 15.931022l7.42168 0.51184h17.082662z"  horiz-adv-x="1024" />
      
      <glyph glyph-name="menu-account" unicode="&#59173;" d="M255.947264 640A256 256 0 0 0 512.049664 896a256 256 0 1 0-256.1024-256z m762.624-693.76l-96.768 194.048A256.1024 256.1024 0 0 1 692.785664 281.6H331.313664a256.1024 256.1024 0 0 1-228.9152-141.312L5.528064-53.75999999999999A51.2 51.2 0 0 1 51.096064-128h921.9072a51.2 51.2 0 0 1 45.568 74.24z"  horiz-adv-x="1024" />
      
      <glyph glyph-name="kefu" unicode="&#59172;" d="M930.909091 337.454545v-186.181818a93.090909 93.090909 0 0 0-93.090909-93.090909v-46.545454a139.636364 139.636364 0 0 0-139.636364-139.636364h-139.636363a46.545455 46.545455 0 0 0-46.545455 46.545455v23.272727a23.272727 23.272727 0 0 0 23.272727 23.272727H698.181818a46.545455 46.545455 0 0 1 46.545455 46.545455v46.545454a46.545455 46.545455 0 0 0-46.545455 46.545455v279.272727a46.545455 46.545455 0 0 0 46.545455 46.545455V570.181818A232.727273 232.727273 0 1 1 279.272727 570.181818v-139.636363a46.545455 46.545455 0 0 0 46.545455-46.545455v-279.272727a46.545455 46.545455 0 0 0-46.545455-46.545455H186.181818a93.090909 93.090909 0 0 0-93.090909 93.090909v186.181818a93.090909 93.090909 0 0 0 93.090909 93.09091V570.181818a325.818182 325.818182 0 1 0 651.636364 0v-139.636363a93.090909 93.090909 0 0 0 93.090909-93.09091z"  horiz-adv-x="1024" />
      
      <glyph glyph-name="login-icon2-iphone" unicode="&#59170;" d="M695.794872 896a143.254974 143.254974 0 0 0 143.123692-137.478564l0.131282-5.77641v-763.746462a142.677333 142.677333 0 0 0-35.078564-93.919179l-68.004103 68.056615c4.148513 6.485333 6.695385 13.915897 7.351795 21.661538l0.210052 4.201026V752.745026a47.734154 47.734154 0 0 1-95.468308 0 47.734154 47.734154 0 0 0-43.533128-47.524103l-4.201026-0.183795H409.363692a47.812923 47.812923 0 0 0-47.629128 43.821949l-0.315077 7.82441a47.734154 47.734154 0 0 1-95.126974 0l-0.157539-3.938461-0.026256-319.776821-95.468308 95.468308L170.666667 752.745026A143.254974 143.254974 0 0 0 308.145231 895.894974L313.921641 896H695.794872z m-175.576616-463.241846l-2.520615-40.513641 39.095795 15.281231 8.402051-28.514462-39.542154-10.948923 26.072616-32.11159-24.28718-17.670564-22.107897 35.603692-23.210667-36.076307-24.182154 18.274461 26.807795 31.875282-40.172308 10.082462 10.476308 29.354667 37.888-15.149949-2.651897 40.513641h29.932307z m136.638359 0l-2.546871-40.513641 39.095794 15.281231 8.402052-28.514462-39.542154-10.948923 26.098872-32.11159-24.313436-17.670564-22.107898 35.603692-23.210666-36.076307-24.182154 18.274461 26.807795 31.875282-40.172308 10.082462 10.502564 29.354667 37.861744-15.149949-2.625641 40.513641h29.932307z m-273.250461 0l-2.520616-40.513641 39.095795 15.281231 8.402052-28.514462-39.542154-10.948923 26.072615-32.11159-24.287179-17.670564-22.134154 35.603692-9.216-14.309743-19.114667 19.140923 7.771898 9.242256-22.764308 5.723898-13.994667 13.994666 7.062975 19.718565 37.888-15.149949-2.651898 40.513641h29.932308z"  horiz-adv-x="1024" />
      
      <glyph glyph-name="login-icon1-qr" unicode="&#59171;" d="M986.4192 115.94240000000002c25.0624 0 37.5808-12.544 37.5808-37.6832v-174.592c0-15.104-4.5056-25.6256-13.5168-31.6672l-108.032 108.288h7.5008v97.9712c0 25.1136 12.544 37.6832 37.632 37.6832h38.8352z m-249.344 114.304c25.0368 0 37.5808-12.544 37.5808-37.6832l-0.0256-84.1472-107.9808 108.288c6.016 9.0368 16.5376 13.568 31.5648 13.568h38.8352z m249.344 114.304c25.0624 0 37.5808-12.544 37.5808-37.6832v-38.912c0-25.1392-12.544-37.7088-37.5808-37.7088h-38.8608c-25.0624 0-37.5808 12.544-37.5808 37.6832v38.9376c0 25.1392 12.544 37.6832 37.5808 37.6832h38.8608z m-363.392 0c25.0624 0 37.5808-12.544 37.5808-37.6832v-38.912c0-15.104-4.5056-25.6512-13.5168-31.6672l-94.464 94.72c5.9904 9.0368 16.5376 13.568 31.5648 13.568h38.8352zM986.4192 896A37.632 37.632 0 0 0 1024 858.3168000000001v-404.48a37.632 37.632 0 0 0-37.5808-37.6832H584.192a37.632 37.632 0 0 0-37.6064 37.6832v404.48A37.632 37.632 0 0 0 584.192 896h402.2272zM428.8 896a37.632 37.632 0 0 0 37.6064-37.6832v-404.48c0-10.0864-3.968-19.2256-10.3936-25.984l-88.704 88.8832c6.5024 6.784 10.496 16 10.496 26.112V769.28a37.632 37.632 0 0 1-37.5808 37.6832H115.1488c-10.3168 0-19.6608-4.1728-26.4704-10.9312L0 884.992A37.4272 37.4272 0 0 0 26.5728 896H428.8z m469.0176-89.0368H672.768A37.632 37.632 0 0 1 635.136 769.28v-226.4064a37.632 37.632 0 0 1 37.6064-37.6832h225.0496a37.632 37.632 0 0 1 37.6064 37.6832V769.28a37.632 37.632 0 0 1-37.6064 37.6832z m-71.3216-71.68a37.632 37.632 0 0 0 37.6064-37.6832v-83.0464a37.632 37.632 0 0 0-37.6064-37.6832h-82.432a37.632 37.632 0 0 0-37.5808 37.6832V697.6a37.632 37.632 0 0 0 37.6064 37.6832h82.432z m-557.568 0a37.632 37.632 0 0 0 37.5552-37.6832v-83.0464c0-10.1888-4.0192-19.456-10.5984-26.24L160.1024 724.48a37.4272 37.4272 0 0 0 26.368 10.8288h82.432z"  horiz-adv-x="1024" />
      
      <glyph glyph-name="menu-inv" unicode="&#59167;" d="M526.049218 895.995449c13.710161 0.113777 27.306545-1.934214 40.334043-6.087084l9.614179-3.527096 408.289741-166.39926c21.503904-8.817739 36.408727-28.501207 39.253159-51.199772L1023.995449 661.045382v-757.130857c0-15.928818-11.605282-29.070093-26.794548-31.573193l-5.233754-0.398221H31.971413a32.028302 32.028302 0 0 0-31.573193 26.794548L0-96.02858700000002V661.159159c0.113777 23.210564 12.799943 44.373136 32.767854 55.523309l6.883525 3.299541 409.59818 166.39926a127.999431 127.999431 0 0 0 38.684272 9.215959L497.889343 895.995449h28.159875zM358.398407 230.39840700000002H153.599317v-204.79909h204.79909v204.79909z m307.198635 0H460.797952v-204.79909h204.79909v204.79909zM358.398407 537.597042H153.599317v-204.79909h204.79909V537.597042z"  horiz-adv-x="1024" />
      
      <glyph glyph-name="menu-pageHome" unicode="&#59168;" d="M1121.28 478.264889L699.164444 880.298667a58.368 58.368 0 0 1-39.822222 15.701333H478.435556c-14.904889-0.056889-29.240889-5.688889-39.822223-15.701333L16.497778 478.264889A52.906667 52.906667 0 0 1 0 440.32v-59.050667c0-14.961778 12.743111-27.079111 28.444444-27.079111H113.777778v-379.221333c0-29.923556 25.486222-54.215111 56.888889-54.215111h170.666666c31.402667 0 56.888889 24.291556 56.888889 54.215111v297.984c0 14.961778 12.743111 27.079111 28.444445 27.079111h284.444444c15.701333 0 28.444444-12.117333 28.444445-27.079111v-297.984c0-29.923556 25.486222-54.215111 56.888888-54.215111h170.666667c31.402667 0 56.888889 24.291556 56.888889 54.215111V354.19022199999995h85.333333c15.701333 0 28.444444 12.117333 28.444445 27.079111V440.32a52.906667 52.906667 0 0 1-16.497778 37.944889z"  horiz-adv-x="1137" />
      
      <glyph glyph-name="menu-analyse" unicode="&#59169;" d="M1024 184.8832v-199.1168A113.7664 113.7664 0 0 0 910.2336-128h-199.168a28.4672 28.4672 0 0 0-28.416 28.4672v56.832c0 15.7184 12.8 28.4672 28.4672 28.4672h199.1168v199.168c0 15.6672 12.7488 28.416 28.416 28.416h56.8832c15.7184 0 28.4672-12.8 28.4672-28.4672zM312.8832-14.233600000000024H113.7664v199.168a28.4672 28.4672 0 0 1-28.416 28.416H28.4672A28.4672 28.4672 0 0 1 0 184.832v-199.1168C0-77.05600000000004 50.944-128 113.7664-128h199.168a28.4672 28.4672 0 0 1 28.416 28.4672v56.832a28.4672 28.4672 0 0 1-28.4672 28.4672zM28.4672 554.6496h56.832a28.4672 28.4672 0 0 1 28.4672 28.4672V782.2336h199.168a28.4672 28.4672 0 0 1 28.416 28.416V867.5328A28.4672 28.4672 0 0 1 312.832 896H113.7664A113.7664 113.7664 0 0 1 0 782.2336v-199.168c0-15.6672 12.7488-28.416 28.4672-28.416zM910.2336 896h-199.168a28.4672 28.4672 0 0 1-28.416-28.4672v-56.832c0-15.7184 12.8-28.4672 28.4672-28.4672h199.1168v-199.168c0-15.6672 12.7488-28.416 28.416-28.416h56.8832A28.4672 28.4672 0 0 1 1024 583.168V782.2336A113.7664 113.7664 0 0 1 910.2336 896z m-127.488-603.0336V475.0336c0 40.6016-21.6576 78.08-56.832 98.4064l-138.24 79.6672c-17.3056 9.984-36.9152 15.3088-56.8832 15.36h-37.5808c-19.968-0.0512-39.5776-5.376-56.832-15.36L298.0864 573.44A113.7664 113.7664 0 0 1 241.152 475.0336v-182.0672c0-40.6016 21.7088-78.08 56.8832-98.4064l138.24-79.6672c17.3056-9.984 36.9152-15.3088 56.8832-15.36h37.5808c19.968 0.0512 39.5776 5.376 56.832 15.36l138.24 79.6672a113.7664 113.7664 0 0 1 56.9344 98.4064z m-251.9552-79.616H512v137.6768a56.8832 56.8832 0 0 1-28.4672 49.4592l-128.512 74.5472 138.24 79.616h37.5296l138.24-79.616v-182.0672l-138.24-79.616z"  horiz-adv-x="1024" />
      
      <glyph glyph-name="menu-report" unicode="&#59162;" d="M1023.969281 471.096267a29.029529 29.029529 0 0 0-7.423777-20.99137 29.592712 29.592712 0 0 0-20.991371-9.113327h-426.585602V866.4508060000001a29.592712 29.592712 0 0 0 9.062128 20.991371 28.415148 28.415148 0 0 0 21.042569 8.550143A455.00075 455.00075 0 0 0 1023.969281 471.045069z m-143.355699-143.867684H455.154345V752.636621a28.415148 28.415148 0 0 1-29.541513 28.415147 455.00075 455.00075 0 1 1 483.467096-483.467096 28.415148 28.415148 0 0 1-28.466346 29.592713z"  horiz-adv-x="1024" />
      
      <glyph glyph-name="menu-per" unicode="&#59163;" d="M128 192V320a64 64 0 0 0 64 64h128a64 64 0 0 0 64-64v-128a64 64 0 0 0-64-64H192a64 64 0 0 0-64 64z m448-64h128a64 64 0 0 1 64 64V832a64 64 0 0 1-64 64H576a64 64 0 0 1-64-64v-640a64 64 0 0 1 64-64z m384 0h128a64 64 0 0 1 64 64V576a64 64 0 0 1-64 64h-128a64 64 0 0 1-64-64v-384a64 64 0 0 1 64-64z m288-128H32a32 32 0 0 1-32-32v-64a32 32 0 0 1 32-32h1216a32 32 0 0 1 32 32v64a32 32 0 0 1-32 32z"  horiz-adv-x="1280" />
      
      <glyph glyph-name="menu-order" unicode="&#59164;" d="M102.4-25.600000000000023a102.4 102.4 0 0 1 102.4-102.4h614.4a102.4 102.4 0 0 1 102.4 102.4V793.6a102.4 102.4 0 0 1-102.4 102.4H452.096a102.4 102.4 0 0 1-72.704-30.208L132.608 619.008A102.4 102.4 0 0 1 102.4 546.304V-25.600000000000023z m460.8 128a25.6 25.6 0 0 0-25.6-25.6h-256a25.6 25.6 0 0 0-25.6 25.6v51.2a25.6 25.6 0 0 0 25.6 25.6h256a25.6 25.6 0 0 0 25.6-25.6v-51.2z m204.8 204.8a25.6 25.6 0 0 0-25.6-25.6h-460.8a25.6 25.6 0 0 0-25.6 25.6v51.2a25.6 25.6 0 0 0 25.6 25.6h460.8a25.6 25.6 0 0 0 25.6-25.6v-51.2zM195.584 537.6L460.8 802.816V588.8a51.2 51.2 0 0 0-51.2-51.2H195.584z"  horiz-adv-x="1024" />
      
      <glyph glyph-name="menu-billOrder" unicode="&#59165;" d="M214.015833-120.31847600000003a24.063964 24.063964 0 0 1 17.919973-7.679988h14.847977a24.063964 24.063964 0 0 1 17.919974 7.679988L358.399616-25.598617999999988a26.111961 26.111961 0 0 0 36.351945 0l92.671861-92.671861a24.063964 24.063964 0 0 1 17.919974-7.679988h14.847977a24.063964 24.063964 0 0 1 17.919973 7.679988L630.783207-25.598617999999988a26.111961 26.111961 0 0 0 34.815948 0l92.671861-92.671861a24.063964 24.063964 0 0 1 17.919973-7.679988h14.847978a24.063964 24.063964 0 0 1 17.919973 7.679988L906.750793-25.598617999999988a51.199923 51.199923 0 0 1 14.847978 35.839947V844.800077a51.199923 51.199923 0 0 1-51.199923 51.199923H153.599923a51.199923 51.199923 0 0 1-51.199923-51.199923v-832.510751c0.2048-13.56798 5.478392-26.52156 14.847978-36.351946l96.767855-96.255856zM563.199309 307.200883a25.599962 25.599962 0 0 0-25.599962-25.599961h-204.799693a25.599962 25.599962 0 0 0-25.599961 25.599961v51.199923a25.599962 25.599962 0 0 0 25.599961 25.599962h204.799693a25.599962 25.599962 0 0 0 25.599962-25.599962v-51.199923z m153.599769 204.799693a25.599962 25.599962 0 0 0-25.599961-25.599962h-358.399463a25.599962 25.599962 0 0 0-25.599961 25.599962v51.199923a25.599962 25.599962 0 0 0 25.599961 25.599962h358.399463a25.599962 25.599962 0 0 0 25.599961-25.599962v-51.199923z"  horiz-adv-x="1024" />
      
      <glyph glyph-name="menu-warn" unicode="&#59166;" d="M659.549091 896a93.090909 93.090909 0 0 0 66.094545-27.461818l164.305455-164.305455A139.636364 139.636364 0 0 0 930.909091 605.556364v-272.290909a372.363636 372.363636 0 0 0-143.825455-293.701819l-189.905454-148.014545A93.090909 93.090909 0 0 0 539.927273-128H484.072727a93.090909 93.090909 0 0 0-57.250909 19.549091L236.916364 39.563635999999974A372.363636 372.363636 0 0 0 93.090909 333.265455V605.556364a139.636364 139.636364 0 0 0 40.96 98.676363L298.356364 868.538182A93.090909 93.090909 0 0 0 364.450909 896z m0-93.090909H364.450909L199.68 638.1381819999999a46.545455 46.545455 0 0 1-13.498182-32.581818v-272.290909a276.014545 276.014545 0 0 1 107.985455-220.16L484.072727-34.90909099999999h55.854546l189.905454 146.618182A276.014545 276.014545 0 0 1 837.818182 331.869091V605.556364a46.545455 46.545455 0 0 1-13.498182 32.581818L659.549091 802.909091zM533.410909 275.316364a27.927273 27.927273 0 0 0 27.927273-27.927273v-55.854546a27.927273 27.927273 0 0 0-27.927273-27.927272h-55.854545a27.927273 27.927273 0 0 0-27.927273 27.927272v55.854546a27.927273 27.927273 0 0 0 27.927273 27.927273h55.854545zM542.254545 608.814545a29.696 29.696 0 0 0 23.412364-11.636363c5.957818-7.493818 8.750545-17.501091 7.68-27.461818l-24.855273-224.814546c-0.930909-8.843636-7.633455-15.406545-15.546181-15.36H467.037091c-7.912727-0.046545-14.615273 6.516364-15.546182 15.36l-24.901818 224.814546a37.794909 37.794909 0 0 0 7.68 27.461818 29.696 29.696 0 0 0 23.458909 11.636363H542.254545z"  horiz-adv-x="1024" />
      
      <glyph glyph-name="shibai1" unicode="&#59161;" d="M512 896C229.226667 896 0 666.773333 0 384s229.226667-512 512-512 512 229.226667 512 512A512 512 0 0 1 512 896z m213.333333-664.576L664.576 170.666667 512 323.242667 359.424 170.666667 298.666667 231.424 451.242667 384 298.666667 536.576 359.424 597.333333 512 444.757333 664.576 597.333333 725.333333 536.576 572.757333 384 725.333333 231.424z"  horiz-adv-x="1024" />
      
      <glyph glyph-name="gouxuan" unicode="&#59160;" d="M512 896C229.239467 896 0 666.760533 0 384c0-282.760533 229.239467-512 512-512 282.760533 0 512 229.239467 512 512A512 512 0 0 1 512 896z m222.72-395.776l-287.744-287.744a24.576 24.576 0 0 0-35.84 0L289.28 332.8a25.6 25.6 0 0 0 0 36.352l27.136 27.136a24.576 24.576 0 0 0 35.84 0l76.8-76.288 242.688 242.688a25.6 25.6 0 0 0 35.84 0l27.136-27.136a25.6 25.6 0 0 0 0-35.328z"  horiz-adv-x="1024" />
      
      <glyph glyph-name="tishi" unicode="&#59152;" d="M512 896a512 512 0 1 1 0-1024A512 512 0 0 1 512 896z m0-921.6A409.6 409.6 0 1 0 512 793.6a409.6 409.6 0 0 0 0-819.2z m25.6 307.2h-51.2a25.6 25.6 0 0 1-25.6-25.6v-51.2c0-14.116571 11.483429-25.6 25.6-25.6h51.2a25.6 25.6 0 0 1 25.6 25.6v51.2a25.6 25.6 0 0 1-25.6 25.6z m9.216 307.2h-69.632a25.6 25.6 0 0 1-25.6-28.672l20.48-164.864c0.731429-6.436571 6.290286-11.337143 12.8-11.264h54.272a12.8 12.8 0 0 1 12.8 11.264l20.48 164.864a25.6 25.6 0 0 1-25.6 28.672z"  horiz-adv-x="1024" />
      
      <glyph glyph-name="cuowu" unicode="&#59159;" d="M512 896a512 512 0 1 1 0-1024A512 512 0 0 1 512 896z m0-921.6A409.6 409.6 0 1 0 512 793.6a409.6 409.6 0 0 0 0-819.2z m25.6 204.8h-51.2a25.6 25.6 0 0 1-25.6-25.6v-51.2c0-14.116571 11.483429-25.6 25.6-25.6h51.2a25.6 25.6 0 0 1 25.6 25.6v51.2a25.6 25.6 0 0 1-25.6 25.6z m173.056 358.4A147.456 147.456 0 0 1 563.2 685.056H460.8A147.456 147.456 0 0 1 313.344 537.6v-25.6c0-14.116571 11.483429-25.6 25.6-25.6h38.912a25.6 25.6 0 0 1 25.6 25.6V537.6a57.344 57.344 0 0 0 57.344 57.344h102.4c31.670857 0 57.344-25.673143 57.344-57.344v-28.672a57.856 57.856 0 0 0-38.912-54.784l-48.64-15.872c-39.350857-13.019429-65.901714-49.737143-66.048-91.136v-39.936c0-14.116571 11.483429-25.6 25.6-25.6h38.912a25.6 25.6 0 0 1 25.6 25.6v39.936A6.656 6.656 0 0 0 563.2 353.28l48.64 15.872a147.968 147.968 0 0 1 102.4 139.776L710.656 537.6z"  horiz-adv-x="1024" />
      
      <glyph glyph-name="dankuangguanbi" unicode="&#59150;" d="M891.136 829.824L512.448 451.2 133.76 829.824a49.28 49.28 0 0 1-33.792 13.504 45.376 45.376 0 0 1-33.024-14.272 45.376 45.376 0 0 1-14.272-33.024c0-12.544 4.48-23.808 13.44-33.792l378.752-378.688-378.688-378.688a46.08 46.08 0 0 1-12.8-46.592c4.48-17.984 15.552-29.312 33.088-33.792s33.28-0.256 47.36 12.8l378.624 378.624 378.688-378.624a49.28 49.28 0 0 1 33.792-13.568 45.376 45.376 0 0 1 33.088 14.272 45.376 45.376 0 0 1 14.272 33.088 49.28 49.28 0 0 1-13.568 33.792L580.096 383.552 958.72 762.24a46.08 46.08 0 0 1 12.8 46.528 43.456 43.456 0 0 1-33.792 33.856 46.08 46.08 0 0 1-46.592-12.8z"  horiz-adv-x="1024" />
      
      <glyph glyph-name="weifasong1" unicode="&#58931;" d="M1470.6 19.93399999999997h-93.866V833.399c0 37.547-25.054 62.601-62.6 62.601h-1126.4c-37.547 0-62.601-25.054-62.601-62.6v-813.466H31.266C12.493 19.93399999999997 0 7.373000000000047 0-11.400999999999954v-31.266c0-37.546 25.054-62.6 62.6-62.6h1376.666c37.547 0 62.6 25.054 62.6 62.6V-11.399999999999977c0 18.774-12.492 31.335-31.265 31.335z m-350.48 413.013l-237.773-237.84a30.242 30.242 0 0 0-43.828 0l-12.492 12.56c-6.28 6.212-12.493 12.493-6.28 24.986v112.64c-187.734 0-375.468-81.306-394.24-181.453 0-12.493-12.494-18.773-18.774-18.773H394.24c-6.28 0-12.493 0-12.493 6.28-6.28 0-6.28 6.212-6.28 12.493 12.492 231.56 206.506 413.013 438.067 419.294V683.213c0 6.28 6.212 18.773 6.212 25.054l12.561 12.492a30.242 30.242 0 0 0 43.76 0l237.84-237.772c12.493-12.493 12.493-31.266 6.212-50.04 0 6.212 0 6.212 0 0z"  horiz-adv-x="1501" />
      
      <glyph glyph-name="yifasong1" unicode="&#58930;" d="M1184.914 896H131.657C58.953 896 0 838.656 0 768v-768c0-70.656 58.953-128 131.657-128h1053.257c72.704 0 131.657 57.344 131.657 128V768c0 70.656-58.953 128-131.657 128z m0-128v-185.563l-483.84-329.655a76.8 76.8 0 0 0-85.577 0l-483.84 329.655V768h1053.257zM131.657 0V448L549.67 163.84000000000003a194.048 194.048 0 0 1 217.234 0L1184.914 448v-448H131.657z"  horiz-adv-x="1316" />
      
      <glyph glyph-name="shouji" unicode="&#59155;" d="M682.666667 896H310.328889A139.662222 139.662222 0 0 1 170.666667 756.337778v-744.675556A139.662222 139.662222 0 0 1 310.328889-128H682.666667a139.662222 139.662222 0 0 1 139.662222 139.662222V756.337778A139.662222 139.662222 0 0 1 682.666667 896z m0-930.929778H310.328889a46.535111 46.535111 0 0 0-46.592 46.592V756.337778a46.535111 46.535111 0 1 0 93.070222 0c0-25.656889 20.878222-46.535111 46.592-46.535111h186.197333a46.535111 46.535111 0 0 1 46.535112 46.535111 46.535111 46.535111 0 0 0 93.070222 0v-744.675556a46.535111 46.535111 0 0 0-46.535111-46.592z"  horiz-adv-x="1024" />
      
      <glyph glyph-name="yanzhengma" unicode="&#59156;" d="M882.175794 704.284551L717.937663 868.465793A93.070171 93.070171 0 0 1 651.775922 896H356.69342c-24.803542 0-48.583084-9.841772-66.104853-27.477318L126.293548 704.284551C100.124673 678.115677 85.33357 642.560141 85.33357 605.582384v-272.32696a372.337571 372.337571 0 0 1 143.815032-293.71717l189.895005-147.967918c16.383991-12.743104 36.522646-19.626656 57.287079-19.569767h55.864858c20.707544 0 40.8462 6.826663 57.230191 19.569767l189.895005 147.967918a372.337571 372.337571 0 0 1 143.815032 293.71717V605.582384c0 36.977757-14.791103 72.476404-40.959978 98.645278z m-52.110193-372.39446a276.024736 276.024736 0 0 0-107.975051-220.159878l-189.895006-146.659474h-55.864858l-189.895005 148.024807a276.024736 276.024736 0 0 0-108.03194 220.159878V605.582384c0.056889 12.174215 4.892442 23.89332 13.539548 32.540426L356.69342 802.929829h295.082502l164.80702-164.807019a46.535085 46.535085 0 0 0 13.482659-32.540426v-273.692293z m-148.024807 238.307423a23.324431 23.324431 0 0 1-32.597315 0L428.828491 349.582526 359.025863 418.930043a22.357321 22.357321 0 0 1-32.597315 0l-24.632876-24.689764a23.324431 23.324431 0 0 1 0-32.995537l109.340384-109.909273a22.357321 22.357321 0 0 1 32.597315 0l261.574966 261.574966a23.324431 23.324431 0 0 1 0 33.052426l-23.267543 24.234653z"  horiz-adv-x="1024" />
      
      <glyph glyph-name="duanxin1" unicode="&#59157;" d="M512 896a139.662222 139.662222 0 0 0 139.377778-130.446222l0.284444-9.216-0.056889-46.478222H558.535111v46.478222a46.535111 46.535111 0 0 1-40.675555 46.193778L512 802.929778l-5.859556-0.398222a46.592 46.592 0 0 1-40.334222-40.334223l-0.341333-5.859555-0.398222-5.802667a46.592 46.592 0 0 0-40.334223-40.391111l-5.802666-0.341333H232.675556a46.535111 46.535111 0 0 0-46.193778 40.732444l-0.341334 5.802667-0.398222 5.859555a46.592 46.592 0 0 1-40.334222 40.391111l-5.802667 0.341334-5.859555-0.398222a46.592 46.592 0 0 1-40.391111-40.334223l-0.341334-5.859555v-744.675556c0-23.779556 17.749333-43.349333 40.732445-46.193778l5.859555-0.398222H512a46.535111 46.535111 0 0 1 46.193778 40.732445l0.341333 5.859555v46.535111h93.070222v-46.535111a139.662222 139.662222 0 0 0-130.446222-139.377778L512-128H139.662222a139.662222 139.662222 0 0 0-139.377778 130.446222L0 11.662222V756.337778A139.662222 139.662222 0 0 0 130.446222 895.715556L139.662222 896H512z m279.893333-279.267556a186.140444 186.140444 0 0 0 186.311111-185.912888v-92.728889a186.140444 186.140444 0 0 0-186.311111-185.912889H558.762667a139.946667 139.946667 0 0 1-100.124445-39.480889l-93.240889-92.956445a22.869333 22.869333 0 0 0-16.270222-6.997333 23.267556 23.267556 0 0 0-23.324444 23.267556v394.808889A186.140444 186.140444 0 0 0 512.170667 616.675556z m0-92.956444H512.170667c-51.484444 0-93.184-41.642667-93.184-92.956444v-232.106667a233.301333 233.301333 0 0 0 139.776 46.478222h233.130666c51.427556 0 93.127111 41.585778 93.127111 92.956445V430.819556c0 51.313778-41.699556 92.956444-93.127111 92.956444z"  horiz-adv-x="1024" />
      
      <glyph glyph-name="zhanghu" unicode="&#59146;" d="M512.101195 384a256 256 0 1 1 0.060236 512.060235A256 256 0 0 1 512.101195 384z m0 409.6a153.6 153.6 0 1 0 0-307.2 153.6 153.6 0 0 0 0 307.2z m506.518589-847.329882l-96.798118 194.017882a256.060235 256.060235 0 0 1-228.894118 141.312H331.274842c-96.978824 0-185.524706-54.693647-228.954353-141.312L5.522372-53.729882A51.2 51.2 0 0 1 51.180725-128h921.840941a51.2 51.2 0 0 1 45.598118 74.270118zM134.124725-25.6l59.934117 119.808A153.6 153.6 0 0 0 331.335078 179.2H692.807078a153.6 153.6 0 0 0 137.33647-84.992l59.873883-119.808H134.124725z"  horiz-adv-x="1024" />
      
      <glyph glyph-name="mima" unicode="&#59158;" d="M802.133333 384v-409.6H187.733333V384h614.4zM494.933333 896a307.2 307.2 0 0 1-307.2-307.2v-102.4A102.4 102.4 0 0 1 85.333333 384v-409.6A102.4 102.4 0 0 1 187.733333-128h614.4a102.4 102.4 0 0 1 102.4 102.4V384a102.4 102.4 0 0 1-102.4 102.4V588.8A307.2 307.2 0 0 1 494.933333 896zM290.133333 486.4V588.8a204.8 204.8 0 0 0 409.6 0v-102.4H290.133333z"  horiz-adv-x="1024" />
      
      <glyph glyph-name="weihulve1" unicode="&#59149;" d="M512 896a512 512 0 1 1 0-1024A512 512 0 0 1 512 896z m0-921.6A409.6 409.6 0 1 0 512 793.6a409.6 409.6 0 0 0 0-819.2z m179.2 460.8H332.8a25.6 25.6 0 0 1-25.6-25.6v-51.2c0-14.08 11.52-25.6 25.6-25.6h358.4a25.6 25.6 0 0 1 25.6 25.6v51.2a25.6 25.6 0 0 1-25.6 25.6z"  horiz-adv-x="1024" />
      
      <glyph glyph-name="youbeizhu1" unicode="&#59151;" d="M802.133333 896H187.733333A102.4 102.4 0 0 1 85.333333 793.6v-819.2A102.4 102.4 0 0 1 187.733333-128h367.104c27.306667 0 53.475556 10.808889 72.704 30.208l246.784 246.784a102.4 102.4 0 0 1 30.208 72.704V793.6A102.4 102.4 0 0 1 802.133333 896zM546.133333-34.816V179.2a51.2 51.2 0 0 0 51.2 51.2h214.016L546.133333-34.816z"  horiz-adv-x="1024" />
      
      <glyph glyph-name="yihulve1" unicode="&#59153;" d="M512 896a512 512 0 1 1 0-1024A512 512 0 0 1 512 896zM332.8 332.8a25.6 25.6 0 0 0-25.6 25.6v51.2c0 14.08 11.52 25.6 25.6 25.6h358.4c14.08 0 25.6-11.52 25.6-25.6v-51.2a25.6 25.6 0 0 0-25.6-25.6H332.8z"  horiz-adv-x="1024" />
      
      <glyph glyph-name="wubeizhu1" unicode="&#59154;" d="M1024 412.416v-426.624c0-62.848-50.944-113.792-113.792-113.792H113.792A113.792 113.792 0 0 0 0-14.208V782.208C0 845.056 50.944 896 113.792 896h426.624c15.744 0 28.48-12.736 28.48-28.416v-56.96a28.416 28.416 0 0 0-28.48-28.416H113.792v-796.416h796.416V412.416c0 15.744 12.8 28.48 28.48 28.48h56.896c15.68 0 28.416-12.8 28.416-28.48zM1007.488 855.68L983.68 879.488A56.896 56.896 0 0 1 943.808 896h-17.088a56.896 56.896 0 0 1-39.808-16.512l-102.4-102.4a28.416 28.416 0 0 1 0-39.808l80.768-80.768c11.072-10.88 28.8-10.88 39.808 0l102.4 102.4A56.896 56.896 0 0 1 1024 798.72v17.088a56.896 56.896 0 0 1-16.512 39.808zM274.752 253.696l-44.928-113.728a28.416 28.416 0 0 1 36.992-36.992l113.792 44.928c14.464 5.632 27.584 14.144 38.656 25.024l377.152 373.184a28.416 28.416 0 0 1 0 39.872l-82.432 82.432a28.416 28.416 0 0 1-39.872 0L299.776 292.48c-10.88-11.072-19.392-24.256-24.96-38.72z"  horiz-adv-x="1024" />
      
      <glyph glyph-name="xufei" unicode="&#59147;" d="M772.654545 663.272727H251.345455A65.163636 65.163636 0 0 1 186.181818 598.109091v-390.981818a65.163636 65.163636 0 0 1 65.163637-65.163637h521.30909a65.163636 65.163636 0 0 1 65.163637 65.163637V598.109091A65.163636 65.163636 0 0 1 772.654545 663.272727z m0-65.163636v-97.745455H251.345455V598.109091h521.30909zM251.345455 207.127273v195.490909h521.30909v-195.490909H251.345455zM430.545455 337.454545h-97.745455a16.290909 16.290909 0 0 1-16.290909-16.290909v-32.581818c0-8.983273 7.307636-16.290909 16.290909-16.290909h97.745455a16.290909 16.290909 0 0 1 16.290909 16.290909v32.581818a16.290909 16.290909 0 0 1-16.290909 16.290909z"  horiz-adv-x="1024" />
      
      <glyph glyph-name="weikaipiao" unicode="&#59148;" d="M525.963636 335.127273a16.290909 16.290909 0 0 0-16.290909-16.290909h-130.327272a16.290909 16.290909 0 0 0-16.29091 16.290909v32.581818a16.290909 16.290909 0 0 0 16.29091 16.290909h130.327272a16.290909 16.290909 0 0 0 16.290909-16.290909v-32.581818z m97.745455 130.327272a16.290909 16.290909 0 0 0-16.290909-16.290909h-228.072727a16.290909 16.290909 0 0 0-16.29091 16.290909v32.581819a16.290909 16.290909 0 0 0 16.29091 16.290909h228.072727a16.290909 16.290909 0 0 0 16.290909-16.290909v-32.581819zM721.454545 709.818182H265.309091a32.581818 32.581818 0 0 1-32.581818-32.581818v-529.780364a34.210909 34.210909 0 0 1 9.448727-23.133091l61.579636-61.253818a15.36 15.36 0 0 1 11.403637-4.887273h9.448727a15.36 15.36 0 0 1 11.403636 4.887273L395.636364 123.345455a16.290909 16.290909 0 0 0 11.403636 4.887272c4.282182-0.093091 8.378182-1.861818 11.403636-4.887272l58.973091-58.973091a15.313455 15.313455 0 0 1 11.403637-4.887273h9.448727a15.313455 15.313455 0 0 1 11.403636 4.887273l59.298909 58.973091a16.290909 16.290909 0 0 0 11.403637 4.887272c4.049455-0.279273 7.912727-2.001455 10.752-4.887272l58.973091-58.973091a15.313455 15.313455 0 0 1 11.403636-4.887273h9.448727a15.313455 15.313455 0 0 1 11.403637 4.887273l62.231272 58.973091a32.581818 32.581818 0 0 1 9.448728 22.807272V677.236364a32.581818 32.581818 0 0 1-32.581819 32.581818z m-32.581818-549.329455l-21.504-21.504-24.110545 23.784728-5.213091 5.21309-11.077818 11.077819a32.581818 32.581818 0 0 1-22.807273 9.448727H558.545455a32.581818 32.581818 0 0 1-23.133091-9.448727l-42.030546-40.401455-40.401454 40.401455a32.581818 32.581818 0 0 1-22.807273 9.448727H382.929455a32.581818 32.581818 0 0 1-22.807273-9.448727l-40.075637-40.075637-22.155636 22.155637V644.654545h390.981818v-484.165818z"  horiz-adv-x="1024" />
      
      <glyph glyph-name="duanxin" unicode="&#59144;" d="M512 896a139.636364 139.636364 0 0 0 139.403636-131.444364L651.636364 756.363636v-46.498909h-93.090909V756.363636a46.545455 46.545455 0 0 1-41.099637 46.219637L512 802.909091l-5.445818-0.325818a46.545455 46.545455 0 0 1-40.773818-40.773818L465.454545 756.363636l-0.325818-5.445818a46.545455 46.545455 0 0 0-40.773818-40.773818l-4.654545-0.279273H372.363636L372.317091 709.818182H232.727273a46.545455 46.545455 0 0 0-46.219637 41.099636L186.181818 756.363636l-0.325818 5.445819a46.545455 46.545455 0 0 1-40.773818 40.773818L139.636364 802.909091l-5.445819-0.325818a46.545455 46.545455 0 0 1-40.773818-40.773818L93.090909 756.363636v-744.727272a46.545455 46.545455 0 0 1 41.099636-46.219637L139.636364-34.909091h372.363636a46.545455 46.545455 0 0 1 46.219636 41.099636L558.545455 11.636364v46.592h93.090909V11.636364a139.636364 139.636364 0 0 0-131.444364-139.403637L512-128H139.636364a139.636364 139.636364 0 0 0-139.403637 131.444364L0 11.636364V756.363636A139.636364 139.636364 0 0 0 131.444364 895.767273L139.636364 896h372.363636z m325.818182-279.272727a186.181818 186.181818 0 0 0 186.181818-186.181818v-93.09091a186.135273 186.135273 0 0 0-186.135273-186.135272h-297.704727a93.090909 93.090909 0 0 1-51.618909-15.685818l-77.451636-51.665455A24.901818 24.901818 0 0 0 372.363636 104.727273v325.818182a186.181818 186.181818 0 0 0 186.181819 186.181818z m0-93.090909h-279.272727a93.090909 93.090909 0 0 1-93.09091-93.090909v-232.634182l73.448728 36.677818a93.090909 93.090909 0 0 0 41.565091 9.774545H837.818182a93.090909 93.090909 0 0 1 93.090909 93.090909v93.09091a93.090909 93.090909 0 0 1-93.090909 93.090909z"  horiz-adv-x="1024" />
      
      <glyph glyph-name="youxiang" unicode="&#59145;" d="M1070.545455 896a46.545455 46.545455 0 0 0 46.219636-41.099636L1117.090909 849.454545v-744.727272a46.545455 46.545455 0 0 0-41.099636-46.219637L1070.545455 58.181818h-372.363637v-93.090909h69.818182a23.272727 23.272727 0 0 0 22.900364-19.083636l0.372363-4.189091v-46.545455a23.272727 23.272727 0 0 0-19.083636-22.900363L768-128h-418.909091a23.272727 23.272727 0 0 0-22.900364 19.083636L325.818182-104.727273v46.545455a23.272727 23.272727 0 0 0 19.083636 22.900363L349.090909-34.909091H418.909091v93.090909H46.545455a46.545455 46.545455 0 0 0-46.219637 41.099637L0 104.727273V849.454545A46.545455 46.545455 0 0 0 41.099636 895.674182L46.545455 896h1024z m-46.545455-93.090909H93.090909v-651.636364h930.909091V802.909091zM544.674909 691.944727c28.672 0 56.506182-4.189091 83.502546-12.520727 26.996364-8.331636 50.874182-20.852364 71.77309-37.515636a183.389091 183.389091 0 0 0 49.943273-62.557091c12.427636-25.041455 18.664727-54.458182 18.664727-88.250182 0-24.994909-3.490909-47.104-10.426181-66.280727-6.981818-19.176727-16.244364-35.234909-27.834182-48.174546-11.636364-12.939636-24.855273-22.621091-39.842909-29.090909a117.573818 117.573818 0 0 0-47.104-9.728c-16.896 0-30.347636 4.002909-40.494546 11.915636a36.864 36.864 0 0 0-14.894545 24.948364l-0.279273 5.073455h-3.165091l-4.189091-5.957819c-6.144-7.819636-14.429091-15.36-24.901818-22.528-13.032727-8.936727-29.090909-13.451636-48.034909-13.451636-28.672 0-50.827636 9.402182-66.420364 28.16-15.592727 18.804364-23.412364 43.194182-23.412363 73.216 0 17.501091 2.978909 34.816 8.843636 51.898182a146.618182 146.618182 0 0 0 25.320727 45.707636c10.938182 13.312 24.017455 24.064 39.191273 32.209455a105.378909 105.378909 0 0 0 50.594909 12.194909c16.011636 0 29.509818-3.351273 40.494546-10.007273 8.750545-5.352727 15.080727-11.636364 19.037091-18.804363l2.466909-5.585455h0.605091l5.12 24.994909h56.226909l-24.669091-118.225454-0.930909-6.05091c-0.698182-4.189091-1.536-8.610909-2.513455-13.358545a98.490182 98.490182 0 0 1-2.234182-20.014545c0-7.074909 1.396364-13.032727 4.096-17.82691 2.792727-4.794182 8.145455-7.168 16.151273-7.168 16.430545 0 30.021818 8.750545 40.773818 26.251637 10.752 17.501091 16.151273 41.099636 16.151273 70.702545 0 25.041455-4.189091 47.243636-12.660364 66.606546a136.098909 136.098909 0 0 1-35.095272 48.826182 149.597091 149.597091 0 0 1-53.434182 29.696 219.089455 219.089455 0 0 1-67.677091 10.007272c-26.530909 0-50.920727-4.654545-73.076364-14.056727a166.167273 166.167273 0 0 1-56.552727-38.772364c-15.592727-16.477091-27.741091-35.886545-36.398546-58.181818-8.610909-22.341818-12.939636-46.405818-12.939636-72.285091 0-27.508364 4.514909-52.317091 13.591273-74.472727 9.076364-22.062545 21.829818-40.96 38.260363-56.599273a168.029091 168.029091 0 0 1 58.833455-35.979636c22.760727-8.331636 47.848727-12.474182 75.217455-12.474182 34.164364 0 63.581091 5.399273 88.250181 16.290909 20.526545 8.983273 39.703273 20.945455 57.483637 35.746909l10.472727 9.262546 34.816-37.562182-9.541818-9.495273c-22.807273-21.410909-49.105455-37.469091-78.987637-48.034909-34.164364-12.101818-70.237091-18.152727-108.171636-18.152727-36.258909 0-69.259636 5.725091-98.955636 17.221818a223.604364 223.604364 0 0 0-76.194909 47.848727 212.061091 212.061091 0 0 0-49.012364 73.541818 246.411636 246.411636 0 0 0-17.408 93.509819c0 33.326545 6.330182 64.232727 18.990545 92.578909a230.120727 230.120727 0 0 0 51.851637 73.821091 242.548364 242.548364 0 0 0 76.8 49.105454 247.435636 247.435636 0 0 0 93.928727 17.826909z m-1.256727-162.024727a42.356364 42.356364 0 0 1-26.530909-8.750545 76.567273 76.567273 0 0 1-19.316364-22.248728c-5.259636-8.936727-9.309091-18.850909-12.008727-29.696a127.581091 127.581091 0 0 1-4.096-31.278545c0-5.026909 0.465455-10.333091 1.536-15.965091a42.263273 42.263273 0 0 1 6.330182-15.639273 39.330909 39.330909 0 0 1 12.334545-11.869091 38.167273 38.167273 0 0 1 20.247273-4.654545c11.403636 0 21.085091 2.792727 29.090909 8.378182 8.005818 5.632 14.568727 12.753455 19.595636 21.317818 5.073455 8.517818 8.750545 17.826909 11.077818 27.834182 2.327273 10.007273 3.490909 19.176727 3.49091 27.508363a102.4 102.4 0 0 1-1.908364 19.688728 53.154909 53.154909 0 0 1-6.656 17.547636 37.934545 37.934545 0 0 1-12.939636 12.8 38.260364 38.260364 0 0 1-20.247273 5.026909z"  horiz-adv-x="1117" />
      
      <glyph glyph-name="youbeizhu" unicode="&#59138;" d="M750.933333 768H290.133333A76.8 76.8 0 0 1 213.333333 691.2v-614.4A76.8 76.8 0 0 1 290.133333 0h275.328c20.48 0 40.106667 8.106667 54.528 22.656l185.088 185.088a76.8 76.8 0 0 1 22.656 54.528V691.2A76.8 76.8 0 0 1 750.933333 768z m-192-698.112V230.4a38.4 38.4 0 0 0 38.4 38.4h160.512L558.933333 69.888z"  horiz-adv-x="1024" />
      
      <glyph glyph-name="weihulve" unicode="&#59139;" d="M512 725.333333a341.333333 341.333333 0 1 1 0-682.666666 341.333333 341.333333 0 0 1 0 682.666666z m0-614.4a273.066667 273.066667 0 1 0 0 546.133334 273.066667 273.066667 0 0 0 0-546.133334z m119.466667 307.2H392.533333a17.066667 17.066667 0 0 1-17.066666-17.066666v-34.133334c0-9.386667 7.68-17.066667 17.066666-17.066666h238.933334a17.066667 17.066667 0 0 1 17.066666 17.066666v34.133334a17.066667 17.066667 0 0 1-17.066666 17.066666z"  horiz-adv-x="1024" />
      
      <glyph glyph-name="yihulve" unicode="&#59140;" d="M512 725.333333a341.333333 341.333333 0 1 1 0-682.666666 341.333333 341.333333 0 0 1 0 682.666666z m-119.466667-375.466666a17.066667 17.066667 0 0 0-17.066666 17.066666v34.133334c0 9.386667 7.68 17.066667 17.066666 17.066666h238.933334c9.386667 0 17.066667-7.68 17.066666-17.066666v-34.133334a17.066667 17.066667 0 0 0-17.066666-17.066666H392.533333z"  horiz-adv-x="1024" />
      
      <glyph glyph-name="wubeizhu" unicode="&#59143;" d="M853.333333 402.944v-284.416c0-41.898667-33.962667-75.861333-75.861333-75.861333H246.528A75.861333 75.861333 0 0 0 170.666667 118.528V649.472C170.666667 691.370667 204.629333 725.333333 246.528 725.333333h284.416c10.496 0 18.986667-8.490667 18.986667-18.944v-37.973333a18.944 18.944 0 0 0-18.986667-18.944H246.528v-530.944h530.944v284.416c0 10.496 8.533333 18.986667 18.986667 18.986667h37.930666c10.453333 0 18.944-8.533333 18.944-18.986667z m-11.008 295.466667l-15.914666 15.914666A37.930667 37.930667 0 0 1 799.872 725.333333h-11.392a37.930667 37.930667 0 0 1-26.538667-11.008l-68.266666-68.266666a18.944 18.944 0 0 1 0-26.538667l53.845333-53.845333c7.381333-7.253333 19.2-7.253333 26.538667 0l68.266666 68.266666A37.930667 37.930667 0 0 1 853.333333 660.48v11.392a37.930667 37.930667 0 0 1-11.008 26.538667zM353.834667 297.130667l-29.952-75.818667a18.944 18.944 0 0 1 24.661333-24.661333l75.861333 29.952c9.642667 3.754667 18.389333 9.429333 25.770667 16.682666l251.434667 248.789334a18.944 18.944 0 0 1 0 26.581333l-54.954667 54.954667a18.944 18.944 0 0 1-26.581333 0L370.517333 322.986667c-7.253333-7.381333-12.928-16.170667-16.64-25.813334z"  horiz-adv-x="1024" />
      
      <glyph glyph-name="chenggong1" unicode="&#59137;" d="M512 896c282.773333 0 512-229.226667 512-512S794.773333-128 512-128 0 101.226667 0 384 229.226667 896 512 896z m219.648-312.234667L448.810667 300.928l-124.458667 124.437333-56.576-56.554666 181.034667-181.034667 339.413333 339.413333-56.576 56.576z"  horiz-adv-x="1024" />
      
      <glyph glyph-name="jinggao" unicode="&#59136;" d="M554.922667 745.045333l376.661333-636.885333c14.677333-24.490667 4.906667-53.888-14.677333-68.608-9.770667-4.864-14.677333-4.864-24.448-4.864H134.272C104.874667 34.645333 85.333333 54.229333 85.333333 83.626667c0 9.813333 0 19.584 4.906667 24.490666l376.661333 636.885334c14.677333 24.490667 44.032 29.397333 68.48 14.677333 9.813333 0 14.677333-4.906667 19.541334-14.677333z m-78.250667-195.968v-220.458666c0-19.626667 14.677333-39.210667 39.125333-39.210667 24.448 0 39.125333 14.72 39.125334 39.210667V549.077333c0 19.626667-14.677333 39.168-39.125334 39.168-24.448 0-39.125333-19.584-39.125333-39.168z m34.261333-416.426666c29.312 0 48.896 19.626667 48.896 48.981333 0 29.44-19.584 48.981333-48.896 48.981333-29.354667 0-48.938667-19.584-48.938666-48.981333a49.066667 49.066667 0 0 1 48.938666-48.981333z"  horiz-adv-x="1024" />
      
      <glyph glyph-name="mimaxianshi" unicode="&#59132;" d="M831.616 393.6A340.576 340.576 0 0 1 511.808 608a340.576 340.576 0 0 1-317.888-213.44A32 32 0 0 1 192 384c0-3.424 0.64-6.784 1.92-9.92A340.608 340.608 0 0 1 511.808 160a340.576 340.576 0 0 1 317.888 213.44 25.92 25.92 0 0 1 1.92 10.56 29.76 29.76 0 0 1 0 9.6zM511.808 224a282.048 282.048 0 0 0-253.6 160 281.088 281.088 0 0 0 507.2 0 282.048 282.048 0 0 0-253.6-160z m0 256a96 96 0 0 1-95.936-96 96 96 0 1 1 95.936 96z"  horiz-adv-x="1024" />
      
      <glyph glyph-name="mimayincang" unicode="&#59134;" d="M513.824 258.816c-35.072 0-66.976 19.136-82.912 47.84-9.568 15.936-3.2 35.072 12.736 44.64 15.968 9.568 35.104 3.2 44.64-12.768 6.4-9.568 15.968-15.936 28.704-15.936 19.136 0 31.904 12.768 31.904 31.904 0 6.368 0 9.536-3.2 15.936-9.568 15.936-3.2 35.072 12.768 44.64 15.936 9.568 35.072 3.2 44.64-12.768 9.536-15.936 12.736-31.872 12.736-47.808-6.4-51.04-47.84-95.68-102.016-95.68z m376.224 76.544c3.2 6.368 6.4 12.736 6.4 19.136 0 6.368-3.2 12.736-6.4 19.104a533.44 533.44 0 0 1-98.848 108.416c-12.736 12.768-35.072 9.6-44.64-3.2-12.736-12.736-9.568-35.072 3.2-44.608a558.816 558.816 0 0 0 73.344-76.544c-79.712-105.216-191.328-165.792-312.48-165.792-66.976 0-127.552 19.136-184.96 51.008-25.472 15.936-54.176 12.768-76.48-6.4l-51.04-44.608c-12.736-12.768-15.936-31.904-3.2-44.64 12.768-12.768 31.904-15.936 44.64-3.2l51.04 44.64c66.944-41.44 143.488-60.576 220-60.576 149.856-3.2 286.976 73.344 379.424 207.264zM217.28 287.52c12.768 12.768 15.936 31.872 3.2 44.64-6.4 6.4-12.768 12.768-15.968 22.336 79.712 105.216 191.328 165.76 312.48 165.76 35.072 0 66.976-6.336 102.048-15.904 22.304-6.4 44.64-3.2 60.576 12.736l76.512 66.976c12.768 9.568 15.936 31.872 3.2 44.64-9.568 12.736-31.872 15.936-44.64 3.2l-82.88-66.976c-38.272 12.736-79.744 15.936-121.184 15.936-146.688 0-283.776-76.512-376.256-210.432-3.2-6.4-6.368-12.768-6.368-19.136 0-6.4 3.2-12.768 6.4-19.136 9.536-15.936 22.304-28.704 35.04-44.64 6.4-6.4 15.968-12.768 25.504-12.768 6.4 6.4 15.968 9.6 22.336 12.768z"  horiz-adv-x="1024" />
      
      <glyph glyph-name="lianxiwomen" unicode="&#59126;" d="M718.6176 560.5888v-589.2352H619.264V873.216a22.7072 22.7072 0 0 1-28.5184 22.016L29.8752 749.568A22.784 22.784 0 0 1 12.8 727.552v-832.8192c0-12.5696 10.1632-22.7328 22.7328-22.7328h950.528c12.5696 0 22.7328 10.1632 22.7328 22.7328v613.632a22.784 22.784 0 0 1-18.0736 22.3232l-244.5824 52.224a22.8096 22.8096 0 0 1-27.52-22.3232z m-217.344-327.7056a22.4 22.4 0 0 0-22.4512-22.4512H179.328a22.4 22.4 0 0 0-22.4256 22.4512v54.4768c0 12.416 10.0096 22.4512 22.4256 22.4512h299.52c12.3904 0 22.4256-10.0352 22.4256-22.4512v-54.4768z m0 275.3536a22.4 22.4 0 0 0-22.4512-22.4256H179.328a22.4 22.4 0 0 0-22.4256 22.4256v54.4768c0 12.416 10.0096 22.4512 22.4256 22.4512h299.52c12.3904 0 22.4256-10.0352 22.4256-22.4512v-54.4768z"  horiz-adv-x="1024" />
      
      <glyph glyph-name="Laas" unicode="&#59127;" d="M3033.553455 862.952727v-179.106909h-422.725819a115.665455 115.665455 0 0 1-4.142545-231.237818l4.189091-0.046545h167.330909A290.257455 290.257455 0 0 0 2783.837091-128l-5.632-0.046545h-444.183273v179.060363h444.183273a111.197091 111.197091 0 0 1 4.049454 222.347637l-4.049454 0.046545h-167.377455A294.725818 294.725818 0 0 0 2605.149091 862.859636l5.725091 0.046546h422.725818zM196.980364 896v-805.841455h340.247272v-197.026909H0V896h196.980364zM1808.756364 663.179636c72.238545 0 139.729455-20.340364 197.026909-55.668363v37.794909h179.060363v-734.254546H2005.643636v55.668364a376.087273 376.087273 0 1 0-197.026909 696.459636z m-853.643637 0c72.238545 0 139.729455-20.340364 196.980364-55.621818v37.701818H1331.2V-88.901818h-179.060364v55.668363A376.087273 376.087273 0 1 0 955.112727 663.226182z m0-179.060363a196.980364 196.980364 0 1 1 0-393.960728 196.980364 196.980364 0 0 1 0 393.960728z m853.643637 0a196.980364 196.980364 0 1 1 0-393.960728 196.980364 196.980364 0 0 1 0 393.960728z"  horiz-adv-x="3072" />
      
      <glyph glyph-name="shujujieru" unicode="&#59128;" d="M449.894664 822.041914c154.290544 0 248.958942-60.927741 341.24655-166.629692-81.100455 66.073319-144.383386 127.487458-261.24689 127.487459-254.00212 0-427.415783-176.997648-427.415784-410.750255 0-233.727007 182.117626-457.393256 447.409299-457.393256 121.394684 0 260.043695 22.271905 373.144014 166.655292-94.386799-153.983346-288.433974-226.994235-453.118074-205.823125C194.100551-88.955814 0.002176 106.755354 0.002176 375.477412 0.002176 644.19947 171.982245 822.041914 449.894664 822.041914zM511.283203 895.360003C779.774862 882.636857 1001.777118 684.058501 1014.500264 408.83407c12.748746-275.25003-185.317612-466.558017-463.230031-466.558017-142.642594 0-231.423016 70.706899-323.019427 162.917708 78.079668-56.140561 149.733764-110.130732 243.045367-123.775474 251.646931-36.812644 434.071755 190.335191 434.071755 424.087798 0 233.727007-220.082265 444.055713-474.058785 444.055712-116.863503 0-214.11749-42.931018-295.243545-109.004336C228.353205 846.259411 357.120658 902.681572 511.283203 895.360003z m18.611121-149.324166a67.481313 67.481313 0 1 0-10.086357-134.220229l-68.710108-163.404106c15.820733-9.47196 28.057481-24.319897 34.201454-42.060621l253.797322 2.25279a67.506913 67.506913 0 1 0 0.0768-33.305458l-249.906138-2.25279a78.694066 78.694066 0 0 0-13.209544-36.863844l122.060281-155.570539a67.481313 67.481313 0 1 0-26.188689-20.607912l-120.063489 153.01055c-12.031949-7.423968-26.214289-11.67355-41.395025-11.673551a78.796465 78.796465 0 0 0-37.58064 9.47196l-35.481449-68.351709a67.481313 67.481313 0 1 0-31.743865 11.161552l41.318224 79.590062a78.796465 78.796465 0 0 0-14.284739 62.079736l-58.265352 24.575896a67.481313 67.481313 0 1 0 15.820732 29.516674l55.449365-23.372701a79.052464 79.052464 0 0 0 73.727686 33.12626l69.631704 165.631296a67.481313 67.481313 0 0 0 40.806227 121.241084z m95.538794-597.168662a30.003072 30.003072 0 1 1 0-59.980545 30.003072 30.003072 0 0 1 0 59.980545zM299.853702 216.322889a30.003072 30.003072 0 1 1 0-59.980545 30.003072 30.003072 0 0 1 0 59.980545z m110.617129 205.797525c-16.51193 0-30.771069-9.599959-37.50384-23.5263l-1.791992-4.275182a41.599823 41.599823 0 0 1 13.311943-46.412603l6.067174-3.123186-0.358398-0.716797a41.651023 41.651023 0 1 1 20.275113 78.054068z m394.084726 0c-14.335939 0-26.316688-10.060757-29.286276-23.5007l0.1024-13.465543a30.003072 30.003072 0 1 1 29.183876 36.966243zM224.666821 495.464102a30.003072 30.003072 0 1 1 0-60.006145 30.003072 30.003072 0 0 1 0 60.006145zM529.919924 708.531997a30.003072 30.003072 0 1 1 0-59.980545 30.003072 30.003072 0 0 1 0 59.980545z"  horiz-adv-x="1024" />
      
      <glyph glyph-name="zhenghang" unicode="&#59129;" d="M1024 896v-1024H0V896h1024z m-42.0864-42.0864H42.0864v-939.8272h939.8272V853.9136z m-19.3024-19.3024v-901.2224H61.3888V834.6112h901.2224z m-96.4096-305.792h-189.3888l-3.2256-0.1792a31.8208 31.8208 0 0 1-27.6736-25.5232l-0.512-3.2-0.1536-3.2768 0.1792-3.3024c1.5104-15.1552 13.312-27.1872 28.16-28.7232l3.2256-0.1536h126.2592l3.2256-0.1792c14.848-1.536 26.6496-13.568 28.16-28.7232l0.1792-3.2768v-225.28l-0.1792-3.2768a31.872 31.872 0 0 0-28.16-28.7232l-3.2256-0.1792h-63.1296l-3.2256-0.1536c-15.9232-1.664-28.3392-15.36-28.3392-32 0-16.6912 12.416-30.3872 28.3392-32.0256l3.2256-0.1792h126.2592l3.2256 0.1792c14.848 1.536 26.6496 13.568 28.16 28.7232l0.1536 3.2768V496.64l-0.1536 3.2768a31.7952 31.7952 0 0 1-31.3856 28.9024zM543.0528 657.536H158.3104l-3.2768-0.1792c-16.1792-1.6384-28.7744-15.36-28.7744-32 0-16.6656 12.5952-30.3616 28.7744-32l3.2768-0.1792h96.1792v-386.176l-0.1536-3.2768a32.1024 32.1024 0 0 0-31.8976-28.9024 32.1024 32.1024 0 0 0-31.8976 28.9024l-0.1792 3.2768V271.36l-0.1536 3.3024a32.1024 32.1024 0 0 1-31.8976 28.8768c-16.6144 0-30.2592-12.6464-31.8976-28.8768l-0.1536-3.3024v-128.7168l0.1536-3.2768c1.536-15.1552 13.5168-27.1872 28.6208-28.7232l3.2768-0.1792h384.768l3.2512 0.1792c15.104 1.536 27.0848 13.568 28.6208 28.7232l0.1792 3.2768V496.64l-0.1792 3.2768a32.128 32.128 0 0 1-28.6208 28.7232l-3.2768 0.1792h-64.128l-3.2768-0.1792c-16.1536-1.6384-28.7744-15.36-28.7744-32 0-17.792 14.336-32.1792 32.0512-32.1792 16.6144 0 30.2592-12.672 31.8976-28.9024l0.1792-3.2768v-225.28l-0.1792-3.2768a32.128 32.128 0 0 0-28.6208-28.7232l-3.2768-0.1792h-159.104v128.7168l0.1792 3.3024a32.2304 32.2304 0 0 0 28.8 28.7232l3.2768 0.1536h64.5376l3.3024 0.1792a32.2048 32.2048 0 0 1 0 64.0256l-3.3024 0.1792h-64.512l-3.328 0.1536a32.2304 32.2304 0 0 0-28.7744 28.7232l-0.1792 3.3024v128.7168l0.1792 3.2768a32.2304 32.2304 0 0 0 28.8 28.7232l3.2768 0.1792h190.976l3.2768 0.1536a32.128 32.128 0 0 1 28.8 32c0 17.792-14.336 32.2048-32.0768 32.2048z m323.1488 0h-189.3888l-3.2256-0.1792a31.8208 31.8208 0 0 1-27.6736-25.5232l-0.512-3.2-0.1536-3.2768 0.1792-3.3024c1.5104-15.1296 13.312-27.1872 28.16-28.7232l3.2256-0.1536h189.3888l3.2256 0.1536a31.9488 31.9488 0 0 1 28.3136 32c0 17.792-14.1056 32.2048-31.5392 32.2048z"  horiz-adv-x="1024" />
      
      <glyph glyph-name="youxiangmima" unicode="&#59122;" d="M128 896h972.8C1186.133333 896 1228.8 853.333333 1228.8 768v-768c0-85.333333-42.666667-128-128-128h-972.8C42.666667-128 0-85.333333 0 0v768C0 853.333333 42.666667 896 128 896zM166.4 691.2a38.4 38.4 0 1 1 0 76.8 38.4 38.4 0 0 1 0-76.8z m128 0a38.4 38.4 0 1 1 0 76.8 38.4 38.4 0 0 1 0-76.8z m128 0a38.4 38.4 0 1 1 0 76.8 38.4 38.4 0 0 1 0-76.8zM819.2 454.815289l285.889422-162.133333c36.841244-20.127289 92.660622-19.820089 129.115022 0.773688l267.514312 157.320534v-300.612267c0-40.504889-38.138311-73.363911-85.037512-73.363911h-512.455111C857.258667 76.8 819.2 109.818311 819.2 150.163911V454.815289zM1416.760889 588.8c46.978844 0 85.026133-32.8704 85.105778-73.432178v-3.970844l-303.900445-171.736178c-15.018667-8.385422-42.166044-8.533333-57.264355-0.3072L819.279644 514.844444v0.603023c0 40.504889 38.115556 73.363911 85.026134 73.363911z"  horiz-adv-x="1501" />
      
      <glyph glyph-name="duanxinmima" unicode="&#59125;" d="M85.333333 759.466667h375.466667c56.888889 0 85.333333-28.444444 85.333333-85.333334v-716.8c0-56.888889-28.444444-85.333333-85.333333-85.333333h-375.466667c-56.888889 0-85.333333 28.444444-85.333333 85.333333v716.8c0 56.888889 28.444444 85.333333 85.333333 85.333334zM119.466667 759.466667h307.2l-24.689778-49.129245a34.156089 34.156089 0 0 0-30.549333-18.773333h-196.721778a34.156089 34.156089 0 0 0-30.526578 18.773333L119.466667 759.466667zM204.8-34.133333h136.533333c11.377778 0 17.066667-5.654756 17.066667-16.975645s-5.688889-16.975644-17.066667-16.975644H204.8c-11.377778 0-17.066667 5.654756-17.066667 16.975644S193.422222-34.133333 204.8-34.133333zM1158.724267 896H718.620444C671.470933 896 648.533333 874.951111 648.533333 832.910222v-301.659022c0-42.052267 21.526756-61.952 67.470223-61.952h67.470222l-8.2944-64.273067c0.182044-8.044089 5.006222-15.2576 12.344889-18.500266a25.372444 25.372444 0 0 1 23.9616 1.012622l133.927822 81.760711h215.916089c46.717156 0 67.470222 19.899733 67.470222 61.952V832.910222C1228.8 874.973867 1205.441422 896 1158.724267 896zM911.678578 602.157511H797.718756a27.477333 27.477333 0 0 0-26.988089 20.593778 27.124622 27.124622 0 0 0 4.972089 23.176533 26.965333 26.965333 0 0 0 21.276444 10.353778h113.959822a27.4432 27.4432 0 0 0 26.988089-20.593778c1.979733-8.0896 0.147911-16.634311-4.983467-23.176533a26.965333 26.965333 0 0 0-21.276444-10.353778z m168.675555 115.017956H797.718756a27.477333 27.477333 0 0 0-26.988089 20.593777 27.124622 27.124622 0 0 0 4.972089 23.176534 26.965333 26.965333 0 0 0 21.276444 10.353778h282.635378a27.4432 27.4432 0 0 0 26.988089-20.593778c1.979733-8.078222 0.147911-16.634311-4.972089-23.176534a26.965333 26.965333 0 0 0-21.276445-10.353777z"  horiz-adv-x="1228" />
      
      <glyph glyph-name="yingwen" unicode="&#59123;" d="M946.424242 896A77.575758 77.575758 0 0 0 1024 818.424242v-868.848484a77.575758 77.575758 0 0 0-77.575758-77.575758h-868.848484A77.575758 77.575758 0 0 0 0-50.424242v868.848484A77.575758 77.575758 0 0 0 77.575758 896z m0-31.030303h-868.848484A46.545455 46.545455 0 0 1 31.030303 818.424242v-868.848484A46.545455 46.545455 0 0 1 77.575758-96.969697h868.848484a46.545455 46.545455 0 0 1 46.545455 46.545455v868.848484A46.545455 46.545455 0 0 1 946.424242 864.969697zM499.898182 601.212121v-52.441212H257.241212v-118.070303h220.09794v-52.968727H257.272242v-126.91394h242.62594V197.818182H201.69697v403.393939h298.201212z m207.965091-112.577939c76.303515 0 114.439758-42.666667 114.439757-128.03103V197.818182h-56.133818v162.78497c0 26.872242-4.964848 46.173091-14.832485 57.964606-10.27103 11.388121-26.065455 17.066667-47.321212 17.066666-34.474667 0-62.898424-16.911515-85.271273-50.734545V197.818182H562.579394v286.409697h56.133818v-30.347637c27.865212 23.179636 57.561212 34.753939 89.11903 34.75394z"  horiz-adv-x="1024" />
      
      </font>
</defs>
</svg>
